<svg width="11" height="11" viewBox="0 0 11 11" fill="none" xmlns="http://www.w3.org/2000/svg">
<path d="M5.61801 2.17188H4.67382V3.82421H3.02148V4.7684H4.67382V6.42073H5.61801V4.7684H7.27034V3.82421H5.61801V2.17188Z" fill="black"/>
<path d="M1.32187 0C0.592951 0 0 0.592951 0 1.32187V7.27026C0 7.99917 0.592951 8.59213 1.32187 8.59213H6.55362L7.27309 10.0311C7.35335 10.1906 7.51669 10.2917 7.69515 10.2917C7.8736 10.2917 8.03789 10.1906 8.1172 10.0311L8.83667 8.59213H8.9698C9.69872 8.59213 10.2917 7.99917 10.2917 7.27026V1.32187C10.2917 0.592951 9.69872 0 8.9698 0H1.32187ZM9.34748 1.32187V7.27026C9.34748 7.47893 9.17847 7.64794 8.9698 7.64794H8.54492C8.36646 7.64794 8.20218 7.74896 8.12286 7.90853L7.69515 8.76397L7.26743 7.90853C7.18812 7.74896 7.02383 7.64794 6.84537 7.64794H1.32187C1.1132 7.64794 0.944189 7.47893 0.944189 7.27026V1.32187C0.944189 1.1132 1.1132 0.944189 1.32187 0.944189H8.9698C9.17847 0.944189 9.34748 1.1132 9.34748 1.32187Z" fill="black"/>
</svg>
