<svg width="24" height="24" viewBox="0 0 24 24" fill="none" xmlns="http://www.w3.org/2000/svg">
<path d="M2.47894 9.825C2.67784 9.82495 2.86857 9.74591 3.00919 9.60525L9.77419 2.84025C9.91081 2.6988 9.98641 2.50934 9.9847 2.3127C9.98299 2.11605 9.90411 1.92794 9.76506 1.78888C9.626 1.64983 9.43789 1.57095 9.24124 1.56924C9.0446 1.56753 8.85514 1.64313 8.71369 1.77975L1.94869 8.54475C1.84384 8.64964 1.77243 8.78326 1.74351 8.92872C1.71458 9.07419 1.72943 9.22496 1.78618 9.36199C1.84294 9.49901 1.93904 9.61613 2.06235 9.69855C2.18566 9.78096 2.33063 9.82497 2.47894 9.825ZM2.47894 14.07C2.67784 14.07 2.86857 13.9909 3.00919 13.8502L14.0192 2.84025C14.0908 2.77106 14.148 2.6883 14.1873 2.5968C14.2266 2.5053 14.2473 2.40688 14.2481 2.3073C14.249 2.20771 14.23 2.10895 14.1923 2.01678C14.1546 1.92461 14.0989 1.84087 14.0285 1.77045C13.9581 1.70003 13.8743 1.64434 13.7822 1.60663C13.69 1.56892 13.5912 1.54994 13.4916 1.55081C13.3921 1.55167 13.2936 1.57236 13.2021 1.61167C13.1106 1.65098 13.0279 1.70811 12.9587 1.77975L1.94869 12.7897C1.84384 12.8946 1.77243 13.0283 1.74351 13.1737C1.71458 13.3192 1.72943 13.47 1.78618 13.607C1.84294 13.744 1.93904 13.8611 2.06235 13.9435C2.18566 14.026 2.33063 14.07 2.47894 14.07ZM2.47894 18.315C2.67784 18.315 2.86857 18.2359 3.00919 18.0952L18.2642 2.84025C18.3358 2.77106 18.393 2.6883 18.4323 2.5968C18.4716 2.5053 18.4923 2.40688 18.4931 2.3073C18.494 2.20771 18.475 2.10895 18.4373 2.01678C18.3996 1.92461 18.3439 1.84087 18.2735 1.77045C18.2031 1.70003 18.1193 1.64434 18.0272 1.60663C17.935 1.56892 17.8362 1.54994 17.7366 1.55081C17.6371 1.55167 17.5386 1.57236 17.4471 1.61167C17.3556 1.65098 17.2729 1.70811 17.2037 1.77975L1.94869 17.0347C1.84384 17.1396 1.77243 17.2733 1.74351 17.4187C1.71458 17.5642 1.72943 17.715 1.78618 17.852C1.84294 17.989 1.93904 18.1061 2.06235 18.1885C2.18566 18.271 2.33063 18.315 2.47894 18.315ZM22.5092 1.77975C22.3685 1.63914 22.1778 1.56016 21.9789 1.56016C21.7801 1.56016 21.5893 1.63914 21.4487 1.77975L1.94869 21.2797C1.87706 21.3489 1.81992 21.4317 1.78062 21.5232C1.74131 21.6147 1.72062 21.7131 1.71975 21.8127C1.71889 21.9123 1.73787 22.011 1.77558 22.1032C1.81329 22.1954 1.86898 22.2791 1.9394 22.3495C2.00982 22.42 2.09355 22.4757 2.18573 22.5134C2.2779 22.5511 2.37666 22.5701 2.47624 22.5692C2.57583 22.5683 2.67424 22.5476 2.76575 22.5083C2.85725 22.469 2.94001 22.4119 3.00919 22.3402L22.5092 2.84025C22.6498 2.6996 22.7288 2.50887 22.7288 2.31C22.7288 2.11112 22.6498 1.92039 22.5092 1.77975ZM21.4487 6.02475L6.19369 21.2797C6.12206 21.3489 6.06492 21.4317 6.02562 21.5232C5.98631 21.6147 5.96562 21.7131 5.96475 21.8127C5.96389 21.9123 5.98287 22.011 6.02058 22.1032C6.05829 22.1954 6.11398 22.2791 6.1844 22.3495C6.25482 22.42 6.33855 22.4757 6.43073 22.5134C6.5229 22.5511 6.62166 22.5701 6.72124 22.5692C6.82083 22.5683 6.91924 22.5476 7.01075 22.5083C7.10225 22.469 7.18501 22.4119 7.25419 22.3402L22.5092 7.08525C22.5808 7.01606 22.638 6.9333 22.6773 6.8418C22.7166 6.7503 22.7373 6.65188 22.7381 6.5523C22.739 6.45271 22.72 6.35395 22.6823 6.26178C22.6446 6.16961 22.5889 6.08587 22.5185 6.01545C22.4481 5.94503 22.3643 5.88934 22.2722 5.85163C22.18 5.81392 22.0812 5.79494 21.9816 5.79581C21.8821 5.79667 21.7836 5.81736 21.6921 5.85667C21.6006 5.89598 21.5179 5.95311 21.4487 6.02475ZM21.4487 10.2697L10.4387 21.2797C10.3671 21.3489 10.3099 21.4317 10.2706 21.5232C10.2313 21.6147 10.2106 21.7131 10.2098 21.8127C10.2089 21.9123 10.2279 22.011 10.2656 22.1032C10.3033 22.1954 10.359 22.2791 10.4294 22.3495C10.4998 22.42 10.5836 22.4757 10.6757 22.5134C10.7679 22.5511 10.8667 22.5701 10.9662 22.5692C11.0658 22.5683 11.1642 22.5476 11.2557 22.5083C11.3472 22.469 11.43 22.4119 11.4992 22.3402L22.5092 11.3302C22.6458 11.1888 22.7214 10.9993 22.7197 10.8027C22.718 10.606 22.6391 10.4179 22.5001 10.2789C22.361 10.1398 22.1729 10.061 21.9762 10.0592C21.7796 10.0575 21.5901 10.1331 21.4487 10.2697ZM21.4487 14.5147L14.6837 21.2797C14.5431 21.4205 14.4641 21.6113 14.4642 21.8103C14.4642 22.0092 14.5433 22.2 14.6841 22.3406C14.8248 22.4813 15.0156 22.5602 15.2146 22.5602C15.4135 22.5601 15.6043 22.481 15.7449 22.3402L22.5092 15.576C22.5789 15.5064 22.6342 15.4237 22.6719 15.3327C22.7096 15.2417 22.7291 15.1441 22.7291 15.0456C22.7291 14.9471 22.7098 14.8496 22.6721 14.7585C22.6344 14.6675 22.5792 14.5848 22.5096 14.5151C22.4399 14.4454 22.3573 14.3902 22.2663 14.3524C22.1753 14.3147 22.0777 14.2953 21.9792 14.2952C21.8807 14.2952 21.7831 14.3146 21.6921 14.3522C21.6011 14.3899 21.5184 14.4451 21.4487 14.5147Z" fill="#696969"/>
<rect x="1" y="1" className="bg-rect" width="22" height="22" rx="4" stroke="#696969" stroke-width="2"/>
</svg>
