<svg width="17" height="18" viewBox="0 0 17 18" fill="none" xmlns="http://www.w3.org/2000/svg">
<path d="M16.5947 3.6543C16.7501 3.6543 16.876 3.52838 16.876 3.37305C16.876 3.21772 16.7501 3.0918 16.5947 3.0918C16.4394 3.0918 16.3135 3.21772 16.3135 3.37305C16.3135 3.52838 16.4394 3.6543 16.5947 3.6543Z" fill="#232323"/>
<path d="M13.5039 1.40625C13.6592 1.40625 13.7852 1.28033 13.7852 1.125C13.7852 0.96967 13.6592 0.84375 13.5039 0.84375C13.3486 0.84375 13.2227 0.96967 13.2227 1.125C13.2227 1.28033 13.3486 1.40625 13.5039 1.40625Z" fill="#232323"/>
<path d="M12.9414 4.78125C13.0967 4.78125 13.2227 4.65533 13.2227 4.5C13.2227 4.34467 13.0967 4.21875 12.9414 4.21875C12.7861 4.21875 12.6602 4.34467 12.6602 4.5C12.6602 4.65533 12.7861 4.78125 12.9414 4.78125Z" fill="#232323"/>
<path d="M5.06348 3.6543C5.21881 3.6543 5.34473 3.52838 5.34473 3.37305C5.34473 3.21772 5.21881 3.0918 5.06348 3.0918C4.90815 3.0918 4.78223 3.21772 4.78223 3.37305C4.78223 3.52838 4.90815 3.6543 5.06348 3.6543Z" fill="#232323"/>
<path d="M2.81641 1.125C2.97174 1.125 3.09766 0.99908 3.09766 0.84375C3.09766 0.68842 2.97174 0.5625 2.81641 0.5625C2.66108 0.5625 2.53516 0.68842 2.53516 0.84375C2.53516 0.99908 2.66108 1.125 2.81641 1.125Z" fill="#232323"/>
<path d="M1.41016 5.34375C1.56549 5.34375 1.69141 5.21783 1.69141 5.0625C1.69141 4.90717 1.56549 4.78125 1.41016 4.78125C1.25483 4.78125 1.12891 4.90717 1.12891 5.0625C1.12891 5.21783 1.25483 5.34375 1.41016 5.34375Z" fill="#232323"/>
<path d="M15.7256 2.53744C16.3469 2.53744 16.8526 2.03147 16.8526 1.40934C16.8526 0.787219 16.3469 0.28125 15.7256 0.28125C15.1043 0.28125 14.5986 0.787219 14.5986 1.40934C14.5989 2.03147 15.1043 2.53744 15.7256 2.53744Z" fill="#232323"/>
<path d="M2.22363 4.50309C2.22363 5.12522 2.72932 5.63119 3.3506 5.63119C3.97188 5.63119 4.47757 5.12522 4.47757 4.50309C4.47757 3.88125 3.97188 3.375 3.3506 3.375C2.72932 3.375 2.22363 3.88097 2.22363 4.50309Z" fill="#232323"/>
<path d="M16.8306 16.1547C16.7783 16.0777 16.6911 16.0312 16.5977 16.0312H15.4727V12.0938C15.4727 11.3183 14.8419 10.6875 14.0665 10.6875H13.504V7.3125C13.504 6.53709 12.8731 5.90625 12.0977 5.90625H9.28522V5.27259L10.1014 5.62247C10.336 5.72287 10.5989 5.67816 10.7868 5.50519C10.975 5.33222 11.0413 5.07431 10.9606 4.83216L10.5663 3.64894C10.557 3.62081 10.5641 3.59044 10.5849 3.56963L11.3698 2.78494C11.5397 2.61478 11.5996 2.36644 11.5265 2.13722C11.4528 1.90828 11.2599 1.74122 11.0222 1.70184L9.722 1.485C9.69978 1.48134 9.68009 1.46784 9.66856 1.44844L8.98569 0.310219C8.86897 0.116156 8.66366 0 8.43669 0C8.21 0 8.00497 0.116156 7.88825 0.3105L7.20537 1.44872C7.19356 1.46812 7.17416 1.48163 7.15222 1.48528L5.85172 1.70213C5.61406 1.7415 5.42112 1.90828 5.34772 2.1375C5.27403 2.36672 5.33394 2.61478 5.50437 2.78522L6.28906 3.56991C6.30987 3.59072 6.31719 3.62138 6.30791 3.64894L5.91331 4.83244C5.83259 5.07459 5.89897 5.3325 6.08712 5.50547C6.20862 5.61741 6.36162 5.67562 6.51744 5.67562C6.60294 5.67562 6.68928 5.65819 6.77197 5.62275L7.59772 5.26866V5.90625H4.78522C4.00981 5.90625 3.37897 6.53709 3.37897 7.3125V10.6875H2.81647C2.04106 10.6875 1.41022 11.3183 1.41022 12.0938V16.0312H0.285218C0.191843 16.0312 0.104655 16.0777 0.0523427 16.1547C3.01981e-05 16.2321 -0.0106573 16.3302 0.0239365 16.4168L0.586437 17.8231C0.629468 17.93 0.732686 18 0.847718 18H16.0352C16.1502 18 16.2535 17.93 16.2965 17.8234L16.859 16.4171C16.8936 16.3302 16.8829 16.2321 16.8306 16.1547ZM14.0665 15.1875C14.0665 15.3422 13.9399 15.4688 13.7852 15.4688C13.6305 15.4688 13.504 15.3422 13.504 15.1875C13.504 15.0328 13.6305 14.9062 13.7852 14.9062C13.9399 14.9062 14.0665 15.0328 14.0665 15.1875ZM12.379 14.3438C12.379 14.4984 12.2524 14.625 12.0977 14.625C11.943 14.625 11.8165 14.4984 11.8165 14.3438C11.8165 14.1891 11.943 14.0625 12.0977 14.0625C12.2524 14.0625 12.379 14.1891 12.379 14.3438ZM10.6915 15.1875C10.6915 15.3422 10.5649 15.4688 10.4102 15.4688C10.2555 15.4688 10.129 15.3422 10.129 15.1875C10.129 15.0328 10.2555 14.9062 10.4102 14.9062C10.5649 14.9062 10.6915 15.0328 10.6915 15.1875ZM8.72272 14.3438C8.72272 14.4984 8.59616 14.625 8.44147 14.625C8.28678 14.625 8.16022 14.4984 8.16022 14.3438C8.16022 14.1891 8.28678 14.0625 8.44147 14.0625C8.59616 14.0625 8.72272 14.1891 8.72272 14.3438ZM7.03522 15.1875C7.03522 15.3422 6.90866 15.4688 6.75397 15.4688C6.59928 15.4688 6.47272 15.3422 6.47272 15.1875C6.47272 15.0328 6.59928 14.9062 6.75397 14.9062C6.90866 14.9062 7.03522 15.0328 7.03522 15.1875ZM5.34772 14.3438C5.34772 14.4984 5.22116 14.625 5.06647 14.625C4.91178 14.625 4.78522 14.4984 4.78522 14.3438C4.78522 14.1891 4.91178 14.0625 5.06647 14.0625C5.22116 14.0625 5.34772 14.1891 5.34772 14.3438ZM3.66022 15.1875C3.66022 15.3422 3.53366 15.4688 3.37897 15.4688C3.22428 15.4688 3.09772 15.3422 3.09772 15.1875C3.09772 15.0328 3.22428 14.9062 3.37897 14.9062C3.53366 14.9062 3.66022 15.0328 3.66022 15.1875ZM12.3733 9.86625C12.3733 10.0209 12.2496 10.1475 12.0949 10.1475C11.9374 10.1475 11.8137 10.0209 11.8137 9.86625C11.8137 9.71156 11.9374 9.585 12.0949 9.585C12.2496 9.585 12.3733 9.71156 12.3733 9.86625ZM10.9727 9C11.1274 9 11.254 9.12656 11.254 9.28125C11.254 9.43594 11.1274 9.5625 10.9727 9.5625C10.818 9.5625 10.6915 9.43594 10.6915 9.28125C10.6915 9.12656 10.818 9 10.9727 9ZM9.28522 9.84375C9.28522 9.99844 9.15866 10.125 9.00397 10.125C8.84928 10.125 8.72272 9.99844 8.72272 9.84375C8.72272 9.68906 8.84928 9.5625 9.00397 9.5625C9.15866 9.5625 9.28522 9.68906 9.28522 9.84375ZM7.31647 10.125C7.31647 10.2797 7.18991 10.4062 7.03522 10.4062C6.88053 10.4062 6.75397 10.2797 6.75397 10.125C6.75397 9.97031 6.88053 9.84375 7.03522 9.84375C7.18991 9.84375 7.31647 9.97031 7.31647 10.125ZM6.19147 9.28125C6.19147 9.43594 6.06491 9.5625 5.91022 9.5625C5.75553 9.5625 5.62897 9.43594 5.62897 9.28125C5.62897 9.12656 5.75553 9 5.91022 9C6.06491 9 6.19147 9.12656 6.19147 9.28125ZM5.06647 9.5625C5.06647 9.71719 4.93991 9.84375 4.78522 9.84375C4.63053 9.84375 4.50397 9.71719 4.50397 9.5625C4.50397 9.40781 4.63053 9.28125 4.78522 9.28125C4.93991 9.28125 5.06647 9.40781 5.06647 9.5625ZM6.55034 5.10553C6.51237 5.12184 6.48425 5.10694 6.46766 5.09147C6.45078 5.076 6.43362 5.04928 6.44656 5.01019L6.84144 3.82669C6.91822 3.5955 6.85887 3.34462 6.68647 3.17222L5.90234 2.38781C5.8745 2.36025 5.87675 2.32988 5.8835 2.30934C5.88997 2.28881 5.906 2.26322 5.94425 2.25675L7.24503 2.03991C7.42981 2.00897 7.59125 1.899 7.688 1.73812L8.37087 0.599906C8.38916 0.568969 8.417 0.5625 8.43669 0.5625C8.45666 0.5625 8.4845 0.568969 8.50306 0.599906L9.18594 1.73812C9.28269 1.899 9.4444 2.00897 9.62947 2.03991L10.9297 2.25675C10.9682 2.26322 10.984 2.28881 10.9907 2.30934C10.9975 2.32988 10.9992 2.35997 10.9719 2.38753L10.1872 3.17222C10.0148 3.34462 9.95544 3.5955 10.0325 3.82697L10.4271 5.01047C10.44 5.04956 10.4226 5.076 10.406 5.09175C10.3894 5.10722 10.3624 5.12212 10.323 5.10581L8.68869 4.4055C8.68869 4.4055 8.68869 4.4055 8.68841 4.4055C8.52866 4.33716 8.345 4.33687 8.18469 4.4055L6.55034 5.10553ZM8.72272 5.03156V5.90625H8.16022V5.02763L8.40603 4.92216C8.426 4.914 8.44822 4.914 8.46791 4.92216L8.72272 5.03156ZM4.78522 6.46875H12.0977C12.5629 6.46875 12.9415 6.84731 12.9415 7.3125C12.9415 7.8165 12.5314 8.22656 12.0274 8.22656C11.7386 8.22656 11.4728 8.09437 11.2981 7.86347C11.0728 7.56619 10.5913 7.56619 10.3658 7.86347C10.1914 8.09409 9.92591 8.22628 9.63678 8.22628C9.34484 8.22628 9.06809 8.08509 8.89625 7.84856C8.79022 7.70259 8.62034 7.61541 8.44147 7.61541C8.26259 7.61541 8.09272 7.70259 7.98669 7.84856C7.81512 8.08509 7.53809 8.22656 7.24616 8.22656C6.95731 8.22656 6.69153 8.09437 6.51687 7.86347C6.29159 7.56619 5.81009 7.56619 5.58453 7.86347C5.41016 8.09409 5.14466 8.22628 4.85553 8.22628C4.35153 8.22656 3.94147 7.8165 3.94147 7.3125C3.94147 6.84731 4.32003 6.46875 4.78522 6.46875ZM2.81647 11.25H14.0665C14.5317 11.25 14.9102 11.6286 14.9102 12.0938C14.9102 12.8692 14.2794 13.5 13.504 13.5C13.0208 13.5 12.5576 13.2483 12.2949 12.8433C12.188 12.6782 12.0091 12.5795 11.8165 12.5795C11.6238 12.5795 11.4449 12.6782 11.3383 12.843C11.0754 13.2483 10.6122 13.5 10.129 13.5C9.64578 13.5 9.18256 13.248 8.91987 12.843C8.81272 12.6779 8.63384 12.5792 8.44147 12.5792C8.24909 12.5792 8.07022 12.6779 7.96334 12.8427C7.70037 13.248 7.23716 13.5 6.75397 13.5C6.27078 13.5 5.80756 13.2483 5.54487 12.8433C5.438 12.6782 5.25912 12.5795 5.06647 12.5795C4.87381 12.5795 4.69494 12.6782 4.58834 12.843C4.32537 13.2483 3.86216 13.5 3.37897 13.5C2.60356 13.5 1.97272 12.8692 1.97272 12.0938C1.97272 11.6286 2.35128 11.25 2.81647 11.25ZM15.8448 17.4375H1.03812L0.700624 16.5938H16.1826L15.8448 17.4375Z" fill="#232323"/>
<path d="M4.50167 1.96847C4.96686 1.96847 5.34542 1.59019 5.34542 1.125C5.34542 0.659812 4.96686 0.28125 4.50167 0.28125C4.03677 0.28125 3.6582 0.659812 3.6582 1.125C3.6582 1.59019 4.03677 1.96847 4.50167 1.96847Z" fill="#232323"/>
<path d="M0.125438 2.54918L0.77625 2.98315L1.20994 3.63396C1.26225 3.71215 1.34972 3.75912 1.44394 3.75912C1.53788 3.75912 1.62563 3.71215 1.67794 3.63396L2.11191 2.98315L2.76272 2.54918C2.84091 2.49687 2.88788 2.40912 2.88788 2.31518C2.88788 2.22124 2.84119 2.13321 2.763 2.08118L2.11191 1.64721L1.67794 0.996399C1.57359 0.839461 1.314 0.840024 1.20994 0.996399L0.77625 1.64721L0.125438 2.08118C0.0469687 2.13321 0 2.22096 0 2.31518C0 2.4094 0.0469687 2.49687 0.125438 2.54918Z" fill="#232323"/>
<path d="M12.9011 3.65569C13.366 3.65569 13.7446 3.27712 13.7446 2.81194C13.7446 2.34675 13.3663 1.96875 12.9011 1.96875C12.4359 1.96875 12.0576 2.34703 12.0576 2.81222C12.0576 3.27741 12.4362 3.65569 12.9011 3.65569Z" fill="#232323"/>
<path d="M13.9064 5.08015L14.5572 5.51412L14.9909 6.16493C15.0432 6.24312 15.1307 6.29009 15.2249 6.29009C15.3188 6.29009 15.4066 6.24312 15.4589 6.16493L15.8929 5.51412L16.5437 5.08015C16.6219 5.02784 16.6688 4.94009 16.6688 4.84615C16.6688 4.75221 16.6219 4.66446 16.5437 4.61215L15.8929 4.17846L15.4589 3.52765C15.3543 3.37071 15.095 3.37127 14.9909 3.52765L14.5572 4.17846L13.9064 4.61215C13.8282 4.66446 13.7812 4.75221 13.7812 4.84615C13.7812 4.94009 13.8279 5.02784 13.9064 5.08015Z" fill="#232323"/>
</svg>
