<svg width="23" height="20" viewBox="0 0 23 20" fill="none" xmlns="http://www.w3.org/2000/svg">
<path d="M1.03032 2.72665H21.6364C22.2055 2.72665 22.6668 2.26535 22.6668 1.69633C22.6668 1.12732 22.2055 0.666016 21.6364 0.666016H1.03032C0.461303 0.666016 0 1.12732 0 1.69633C0 2.26535 0.461303 2.72665 1.03032 2.72665Z" fill="#232323"/>
<path d="M3.69731 4.78711C3.12829 4.78711 2.66699 5.24841 2.66699 5.81743C2.66699 6.38644 3.12829 6.84774 3.69731 6.84774H18.8084C19.3774 6.84774 19.8387 6.38644 19.8387 5.81743C19.8387 5.24841 19.3774 4.78711 18.8084 4.78711H3.69731Z" fill="#232323"/>
<path d="M1.03032 10.9688H21.6364C22.2054 10.9688 22.6667 10.5075 22.6667 9.93852C22.6667 9.36951 22.2054 8.9082 21.6364 8.9082H1.03032C0.461303 8.9082 0 9.36951 0 9.93852C0 10.5075 0.461303 10.9688 1.03032 10.9688Z" fill="#232323"/>
<path d="M1.03032 19.211H21.6364C22.2055 19.211 22.6668 18.7497 22.6668 18.1807C22.6668 17.6117 22.2055 17.1504 21.6364 17.1504H1.03032C0.461303 17.1504 0 17.6117 0 18.1807C0 18.7497 0.461303 19.211 1.03032 19.211Z" fill="#232323"/>
<path d="M3.69731 13.0293C3.12829 13.0293 2.66699 13.4906 2.66699 14.0596C2.66699 14.6286 3.12829 15.0899 3.69731 15.0899H18.8084C19.3774 15.0899 19.8387 14.6286 19.8387 14.0596C19.8387 13.4906 19.3774 13.0293 18.8084 13.0293H3.69731Z" fill="#232323"/>
</svg>
