<svg width="20" height="24" viewBox="0 0 20 24" fill="none" xmlns="http://www.w3.org/2000/svg">
<path d="M15.2692 5.59687C15.2475 5.66391 15.2451 5.7357 15.2624 5.80402C15.2796 5.87234 15.3158 5.93441 15.3667 5.98312L15.8786 6.46875L15.7567 7.15312C15.7448 7.22198 15.7523 7.29279 15.7783 7.35762C15.8044 7.42245 15.848 7.47875 15.9042 7.52021C15.9605 7.56167 16.0272 7.58664 16.0968 7.59235C16.1665 7.59805 16.2363 7.58425 16.2986 7.5525L16.9379 7.22437L17.5773 7.5525C17.6394 7.5843 17.7092 7.59816 17.7787 7.59253C17.8483 7.5869 17.9149 7.562 17.9711 7.52062C18.0274 7.4791 18.071 7.42275 18.0972 7.35786C18.1233 7.29297 18.131 7.22209 18.1192 7.15312L17.9992 6.46875L18.5092 5.98312C18.5599 5.93438 18.596 5.87236 18.6133 5.80414C18.6305 5.73591 18.6283 5.6642 18.6068 5.59718C18.5853 5.53017 18.5454 5.47053 18.4917 5.42506C18.438 5.3796 18.3726 5.35012 18.3029 5.34L17.5904 5.23875L17.2736 4.6125C17.2424 4.55049 17.1945 4.49837 17.1354 4.46195C17.0763 4.42553 17.0083 4.40625 16.9389 4.40625C16.8695 4.40625 16.8014 4.42553 16.7423 4.46195C16.6832 4.49837 16.6354 4.55049 16.6042 4.6125L16.2854 5.23875L15.5729 5.34C15.5032 5.34986 15.4378 5.3792 15.384 5.42465C15.3303 5.47009 15.2905 5.52979 15.2692 5.59687ZM16.5854 5.955C16.6452 5.94656 16.702 5.92372 16.751 5.88844C16.8 5.85316 16.8397 5.80651 16.8667 5.7525L16.9379 5.61187L17.0092 5.7525C17.0361 5.80651 17.0758 5.85316 17.1248 5.88844C17.1738 5.92372 17.2307 5.94656 17.2904 5.955L17.4311 5.97375L17.3354 6.06562C17.2907 6.10807 17.2572 6.16095 17.2379 6.21951C17.2186 6.27808 17.2141 6.34052 17.2248 6.40125L17.2492 6.54L17.1085 6.46875C17.0558 6.44163 16.9973 6.42749 16.9379 6.42749C16.8786 6.42749 16.8201 6.44163 16.7673 6.46875L16.6267 6.54L16.651 6.40125C16.6618 6.34052 16.6573 6.27808 16.638 6.21951C16.6187 6.16095 16.5851 6.10807 16.5404 6.06562L16.4448 5.97375L16.5854 5.955Z" fill="#232323"/>
<path d="M1.39418 5.78437C1.37249 5.85141 1.37013 5.9232 1.38738 5.99152C1.40462 6.05984 1.44077 6.12191 1.49168 6.17062L2.00356 6.65625L1.88168 7.34062C1.86978 7.40948 1.87727 7.48029 1.90333 7.54512C1.9294 7.60995 1.97299 7.66625 2.02924 7.70771C2.08549 7.74917 2.15217 7.77414 2.22181 7.77985C2.29146 7.78555 2.36131 7.77175 2.42356 7.74L3.06293 7.41187L3.70231 7.74C3.76442 7.7718 3.83416 7.78566 3.90371 7.78003C3.97326 7.7744 4.03987 7.7495 4.09606 7.70812C4.15237 7.6666 4.19604 7.61025 4.22219 7.54536C4.24835 7.48047 4.25596 7.40959 4.24418 7.34062L4.12418 6.65625L4.63418 6.17062C4.68495 6.12188 4.72101 6.05986 4.73827 5.99164C4.75553 5.92341 4.75328 5.8517 4.73179 5.78468C4.7103 5.71767 4.67042 5.65803 4.6167 5.61256C4.56298 5.5671 4.49758 5.53762 4.42793 5.5275L3.71543 5.42625L3.39856 4.8C3.36735 4.73799 3.31953 4.68587 3.26044 4.64945C3.20134 4.61303 3.13329 4.59375 3.06387 4.59375C2.99445 4.59375 2.9264 4.61303 2.8673 4.64945C2.80821 4.68587 2.76039 4.73799 2.72918 4.8L2.41043 5.42625L1.69793 5.5275C1.62825 5.53736 1.56277 5.5667 1.50903 5.61215C1.45529 5.65759 1.41548 5.71729 1.39418 5.78437ZM2.71043 6.1425C2.77021 6.13406 2.82704 6.11122 2.87604 6.07594C2.92503 6.04066 2.96472 5.99401 2.99168 5.94L3.06293 5.79937L3.13418 5.94C3.16115 5.99401 3.20083 6.04066 3.24983 6.07594C3.29882 6.11122 3.35565 6.13406 3.41543 6.1425L3.55606 6.16125L3.46043 6.25312C3.4157 6.29557 3.38219 6.34845 3.36288 6.40701C3.34358 6.46558 3.33909 6.52802 3.34981 6.58875L3.37417 6.7275L3.23355 6.65625C3.18076 6.62913 3.12227 6.61499 3.06293 6.61499C3.00358 6.61499 2.94509 6.62913 2.89231 6.65625L2.75168 6.7275L2.77604 6.58875C2.78676 6.52802 2.78227 6.46558 2.76297 6.40701C2.74366 6.34845 2.71015 6.29557 2.66542 6.25312L2.56979 6.16125L2.71043 6.1425Z" fill="#232323"/>
<path d="M19.5566 17.8238C19.5411 17.7271 19.5004 17.6363 19.4385 17.5606C19.3765 17.4848 19.2957 17.4268 19.2041 17.3925C16.4666 16.2244 14.7209 14.7019 13.7291 12.6131C14.5896 12.4144 15.3908 12.0148 16.0672 11.4469C16.1399 11.3834 16.195 11.3022 16.2272 11.2112C16.2593 11.1201 16.2674 11.0223 16.2506 10.9273C16.2338 10.8322 16.1927 10.7431 16.1313 10.6685C16.07 10.594 15.9904 10.5366 15.9003 10.5019C12.6378 9.23625 12.0491 7.78125 11.6197 6.36H12.6472C12.7649 6.36002 12.8796 6.32282 12.975 6.25373C13.0703 6.18463 13.1413 6.08717 13.1779 5.97528C13.2145 5.86338 13.2148 5.74278 13.1788 5.6307C13.1427 5.51863 13.0722 5.42082 12.9772 5.35125C10.7028 3.67875 10.3916 0.376877 10.3897 0.343127C10.3816 0.249806 10.3389 0.162881 10.27 0.0994028C10.2011 0.0359248 10.111 0.000474258 10.0173 4.72422e-06C9.92365 -0.00046481 9.83319 0.0340805 9.76367 0.0968648C9.69415 0.159649 9.6506 0.246142 9.64155 0.339377C9.63968 0.373127 9.30593 3.67313 7.02218 5.35125C6.9272 5.42082 6.85664 5.51863 6.82059 5.6307C6.78453 5.74278 6.78483 5.86338 6.82144 5.97528C6.85804 6.08717 6.92908 6.18463 7.0244 6.25373C7.11972 6.32282 7.23445 6.36002 7.35218 6.36H8.37968C7.9503 7.78125 7.36155 9.23625 4.09905 10.5019C4.00897 10.5366 3.92938 10.594 3.86801 10.6685C3.80664 10.7431 3.76557 10.8322 3.74879 10.9273C3.732 11.0223 3.74006 11.1201 3.77219 11.2112C3.80432 11.3022 3.85943 11.3834 3.93218 11.4469C4.60854 12.0148 5.40978 12.4144 6.2703 12.6131C5.27843 14.7019 3.5328 16.2244 0.795303 17.3925C0.702538 17.4254 0.62059 17.4832 0.558396 17.5594C0.496203 17.6357 0.456151 17.7276 0.442611 17.8251C0.42907 17.9226 0.44256 18.022 0.481609 18.1123C0.520658 18.2027 0.583767 18.2806 0.664053 18.3375C1.7028 19.1775 4.61468 20.25 7.32593 20.25C8.02706 20.2575 8.72614 20.173 9.4053 19.9988C9.59614 19.9483 9.79291 19.9237 9.9903 19.9256C10.1932 19.9341 10.395 19.9585 10.5941 19.9988C13.7047 20.8369 18.0209 19.3988 19.3353 18.3375C19.414 18.2788 19.4759 18.2004 19.5148 18.1103C19.5536 18.0201 19.568 17.9213 19.5566 17.8238ZM3.81218 18.1875C3.73801 18.1875 3.66551 18.1655 3.60384 18.1243C3.54217 18.0831 3.49411 18.0245 3.46572 17.956C3.43734 17.8875 3.42991 17.8121 3.44438 17.7393C3.45885 17.6666 3.49457 17.5998 3.54701 17.5473C3.59946 17.4949 3.66628 17.4592 3.73902 17.4447C3.81176 17.4302 3.88716 17.4377 3.95568 17.466C4.02421 17.4944 4.08277 17.5425 4.12398 17.6042C4.16519 17.6658 4.18718 17.7383 4.18718 17.8125C4.18689 17.9119 4.14728 18.0071 4.07702 18.0773C4.00676 18.1476 3.91154 18.1872 3.81218 18.1875ZM6.43718 18.1875C6.28884 18.1875 6.14384 18.1435 6.0205 18.0611C5.89716 17.9787 5.80103 17.8616 5.74427 17.7245C5.6875 17.5875 5.67265 17.4367 5.70159 17.2912C5.73053 17.1457 5.80196 17.0121 5.90685 16.9072C6.01174 16.8023 6.14538 16.7309 6.29086 16.7019C6.43635 16.673 6.58715 16.6878 6.72419 16.7446C6.86124 16.8014 6.97837 16.8975 7.06078 17.0208C7.14319 17.1442 7.18718 17.2892 7.18718 17.4375C7.1872 17.536 7.16782 17.6335 7.13014 17.7245C7.09246 17.8156 7.03722 17.8982 6.96757 17.9679C6.89792 18.0375 6.81523 18.0928 6.72422 18.1305C6.63322 18.1681 6.53568 18.1875 6.43718 18.1875ZM7.37468 15.1875C7.30051 15.1875 7.22801 15.1655 7.16634 15.1243C7.10467 15.0831 7.05661 15.0245 7.02822 14.956C6.99984 14.8875 6.99241 14.8121 7.00688 14.7393C7.02135 14.6666 7.05707 14.5998 7.10951 14.5473C7.16196 14.4949 7.22878 14.4592 7.30152 14.4447C7.37426 14.4302 7.44966 14.4377 7.51818 14.466C7.58671 14.4944 7.64527 14.5425 7.68648 14.6042C7.72768 14.6658 7.74968 14.7383 7.74968 14.8125C7.74939 14.9119 7.70978 15.0071 7.63952 15.0773C7.56926 15.1476 7.47404 15.1872 7.37468 15.1875ZM7.37468 11.25C7.30051 11.25 7.22801 11.228 7.16634 11.1868C7.10467 11.1456 7.05661 11.087 7.02822 11.0185C6.99984 10.95 6.99241 10.8746 7.00688 10.8018C7.02135 10.7291 7.05707 10.6623 7.10951 10.6098C7.16196 10.5574 7.22878 10.5217 7.30152 10.5072C7.37426 10.4927 7.44966 10.5002 7.51818 10.5285C7.58671 10.5569 7.64527 10.605 7.68648 10.6667C7.72768 10.7283 7.74968 10.8008 7.74968 10.875C7.74939 10.9744 7.70978 11.0696 7.63952 11.1398C7.56926 11.2101 7.47404 11.2497 7.37468 11.25ZM9.99968 4.3125C10.0738 4.3125 10.1463 4.3345 10.208 4.3757C10.2697 4.41691 10.3177 4.47547 10.3461 4.544C10.3745 4.61252 10.3819 4.68792 10.3675 4.76066C10.353 4.8334 10.3173 4.90022 10.2648 4.95267C10.2124 5.00511 10.1456 5.04083 10.0728 5.0553C10.0001 5.06977 9.92469 5.06234 9.85617 5.03396C9.78765 5.00557 9.72908 4.95751 9.68788 4.89584C9.64667 4.83417 9.62468 4.76167 9.62468 4.6875C9.62467 4.63825 9.63436 4.58948 9.6532 4.54398C9.67204 4.49848 9.69966 4.45713 9.73448 4.42231C9.76931 4.38748 9.81065 4.35986 9.85616 4.34102C9.90166 4.32218 9.95043 4.31249 9.99968 4.3125ZM9.99968 7.5C10.0738 7.5 10.1463 7.522 10.208 7.5632C10.2697 7.60441 10.3177 7.66297 10.3461 7.7315C10.3745 7.80002 10.3819 7.87542 10.3675 7.94816C10.353 8.0209 10.3173 8.08772 10.2648 8.14017C10.2124 8.19261 10.1456 8.22833 10.0728 8.2428C10.0001 8.25727 9.92469 8.24984 9.85617 8.22146C9.78765 8.19307 9.72908 8.14501 9.68788 8.08334C9.64667 8.02167 9.62468 7.94917 9.62468 7.875C9.62467 7.82575 9.63436 7.77698 9.6532 7.73148C9.67204 7.68598 9.69966 7.64463 9.73448 7.60981C9.76931 7.57498 9.81065 7.54736 9.85616 7.52852C9.90166 7.50968 9.95043 7.49999 9.99968 7.5ZM9.99968 18C9.92551 18 9.85301 17.978 9.79134 17.9368C9.72967 17.8956 9.68161 17.837 9.65322 17.7685C9.62484 17.7 9.61741 17.6246 9.63188 17.5518C9.64635 17.4791 9.68207 17.4123 9.73451 17.3598C9.78696 17.3074 9.85378 17.2717 9.92652 17.2572C9.99926 17.2427 10.0747 17.2502 10.1432 17.2785C10.2117 17.3069 10.2703 17.355 10.3115 17.4167C10.3527 17.4783 10.3747 17.5508 10.3747 17.625C10.3744 17.7244 10.3348 17.8196 10.2645 17.8898C10.1943 17.9601 10.099 17.9997 9.99968 18ZM9.99968 15.75C9.85134 15.75 9.70634 15.706 9.583 15.6236C9.45966 15.5412 9.36353 15.4241 9.30677 15.287C9.25 15.15 9.23515 14.9992 9.26409 14.8537C9.29303 14.7082 9.36446 14.5746 9.46935 14.4697C9.57424 14.3648 9.70787 14.2934 9.85336 14.2644C9.99885 14.2355 10.1496 14.2503 10.2867 14.3071C10.4237 14.3639 10.5409 14.46 10.6233 14.5833C10.7057 14.7067 10.7497 14.8517 10.7497 15C10.7497 15.0985 10.7303 15.196 10.6926 15.287C10.655 15.3781 10.5997 15.4607 10.5301 15.5304C10.4604 15.6 10.3777 15.6553 10.2867 15.693C10.1957 15.7306 10.0982 15.75 9.99968 15.75ZM9.99968 11.625C9.85134 11.625 9.70634 11.581 9.583 11.4986C9.45966 11.4162 9.36353 11.2991 9.30677 11.162C9.25 11.025 9.23515 10.8742 9.26409 10.7287C9.29303 10.5832 9.36446 10.4496 9.46935 10.3447C9.57424 10.2398 9.70787 10.1684 9.85336 10.1394C9.99885 10.1105 10.1496 10.1253 10.2867 10.1821C10.4237 10.2389 10.5409 10.335 10.6233 10.4583C10.7057 10.5817 10.7497 10.7267 10.7497 10.875C10.7497 10.9735 10.7303 11.071 10.6926 11.162C10.655 11.2531 10.5997 11.3357 10.5301 11.4054C10.4604 11.475 10.3777 11.5303 10.2867 11.568C10.1957 11.6056 10.0982 11.625 9.99968 11.625ZM12.6247 10.5C12.6988 10.5 12.7713 10.522 12.833 10.5632C12.8947 10.6044 12.9427 10.663 12.9711 10.7315C12.9995 10.8 13.0069 10.8754 12.9925 10.9482C12.978 11.0209 12.9423 11.0877 12.8898 11.1402C12.8374 11.1926 12.7706 11.2283 12.6978 11.2428C12.6251 11.2573 12.5497 11.2498 12.4812 11.2215C12.4127 11.1931 12.3541 11.145 12.3129 11.0833C12.2717 11.0217 12.2497 10.9492 12.2497 10.875C12.2497 10.8258 12.2594 10.777 12.2782 10.7315C12.297 10.686 12.3247 10.6446 12.3595 10.6098C12.3943 10.575 12.4357 10.5474 12.4812 10.5285C12.5267 10.5097 12.5754 10.5 12.6247 10.5ZM12.6247 15.1875C12.5505 15.1875 12.478 15.1655 12.4163 15.1243C12.3547 15.0831 12.3066 15.0245 12.2782 14.956C12.2498 14.8875 12.2424 14.8121 12.2569 14.7393C12.2714 14.6666 12.3071 14.5998 12.3595 14.5473C12.412 14.4949 12.4788 14.4592 12.5515 14.4447C12.6243 14.4302 12.6997 14.4377 12.7682 14.466C12.8367 14.4944 12.8953 14.5425 12.9365 14.6042C12.9777 14.6658 12.9997 14.7383 12.9997 14.8125C12.9994 14.9119 12.9598 15.0071 12.8895 15.0773C12.8193 15.1476 12.724 15.1872 12.6247 15.1875ZM13.5622 18.1875C13.4138 18.1875 13.2688 18.1435 13.1455 18.0611C13.0222 17.9787 12.926 17.8616 12.8693 17.7245C12.8125 17.5875 12.7977 17.4367 12.8266 17.2912C12.8555 17.1457 12.927 17.0121 13.0318 16.9072C13.1367 16.8023 13.2704 16.7309 13.4159 16.7019C13.5613 16.673 13.7121 16.6878 13.8492 16.7446C13.9862 16.8014 14.1034 16.8975 14.1858 17.0208C14.2682 17.1442 14.3122 17.2892 14.3122 17.4375C14.3122 17.536 14.2928 17.6335 14.2551 17.7245C14.2175 17.8156 14.1622 17.8982 14.0926 17.9679C14.0229 18.0375 13.9402 18.0928 13.8492 18.1305C13.7582 18.1681 13.6607 18.1875 13.5622 18.1875ZM15.9997 18.1875C15.9255 18.1875 15.853 18.1655 15.7913 18.1243C15.7297 18.0831 15.6816 18.0245 15.6532 17.956C15.6248 17.8875 15.6174 17.8121 15.6319 17.7393C15.6464 17.6666 15.6821 17.5998 15.7345 17.5473C15.787 17.4949 15.8538 17.4592 15.9265 17.4447C15.9993 17.4302 16.0747 17.4377 16.1432 17.466C16.2117 17.4944 16.2703 17.5425 16.3115 17.6042C16.3527 17.6658 16.3747 17.7383 16.3747 17.8125C16.3744 17.9119 16.3348 18.0071 16.2645 18.0773C16.1943 18.1476 16.099 18.1872 15.9997 18.1875Z" fill="#232323"/>
<path d="M8.43604 20.7607L8.13517 23.0714C8.11621 23.187 8.12148 23.3053 8.15066 23.4188C8.17984 23.5323 8.23229 23.6384 8.30468 23.7306C8.36909 23.8135 8.45139 23.8808 8.54543 23.9274C8.63948 23.9741 8.74284 23.9989 8.84782 24H11.1503C11.2553 23.9989 11.3587 23.9741 11.4527 23.9274C11.5468 23.8808 11.6291 23.8135 11.6935 23.7306C11.7651 23.64 11.8172 23.5357 11.8467 23.4241C11.8761 23.3125 11.8822 23.1961 11.8646 23.082L11.5622 20.7603C11.3021 20.7294 11.0438 20.6855 10.7881 20.6287L11.1218 23.1906C11.122 23.1957 11.1219 23.2009 11.1216 23.2061H8.87655C8.87637 23.1987 8.87637 23.1906 8.87637 23.1906L9.21055 20.625C8.95483 20.6832 8.69633 20.7285 8.43604 20.7607Z" fill="#232323"/>
</svg>
