<svg id="Layer_1" data-name="Layer 1" xmlns="http://www.w3.org/2000/svg" viewBox="0 0 23.83 23.83"><defs><style>.cls-1,.cls-2{fill:none;stroke:#696969;stroke-miterlimit:10;}.cls-1{stroke-width:1px;}.cls-2{stroke-width:0.86px;}</style></defs><rect class="cls-1" x="0.5" y="0.5" width="10.55" height="10.55" rx="1.33"/><circle class="cls-1" cx="5.78" cy="5.78" r="3.27"/><rect class="cls-1" x="0.5" y="12.78" width="10.55" height="10.55" rx="1.33"/><polygon class="cls-1" points="5.78 15.11 6.75 17.08 8.93 17.39 7.35 18.93 7.72 21.1 5.78 20.07 3.83 21.1 4.2 18.93 2.63 17.39 4.8 17.08 5.78 15.11"/><rect class="cls-1" x="12.78" y="0.5" width="10.55" height="10.55" rx="1.33"/><polygon class="cls-1" points="21.27 8.61 14.84 8.61 18.04 3.13 21.27 8.61"/><rect class="cls-1" x="12.78" y="12.78" width="10.55" height="10.55" rx="1.33"/><polygon class="cls-2" points="18.05 14.97 14.76 17.36 16.02 21.24 20.09 21.24 21.35 17.36 18.05 14.97"/></svg>