<svg width="11" height="11" viewBox="0 0 11 11" fill="none" xmlns="http://www.w3.org/2000/svg">
<path d="M10.9142 5.24245C10.8036 5.09505 8.26113 1.63281 5.49972 1.63281C2.76366 1.63281 0.242926 5.02626 0.0855206 5.24202C-0.0260558 5.39137 -0.0294291 5.59995 0.0811374 5.7525C0.188159 5.90013 2.73398 9.36775 5.49972 9.36775C8.26113 9.36775 10.8036 5.9055 10.9142 5.75811C11.0328 5.6 11.0243 5.38885 10.9142 5.24245ZM5.49972 8.50831C3.55986 8.50831 1.58896 6.26559 0.972975 5.50028C1.58896 4.73497 3.55986 2.49225 5.49972 2.49225C7.43897 2.49225 9.37879 4.72891 10.0197 5.50028C9.37861 6.27184 7.43889 8.50831 5.49972 8.50831Z" fill="#696969"/>
<path d="M7.01894 3.98086C7.01275 3.97468 7.00615 3.96922 6.99971 3.96348C6.61221 3.58514 6.08273 3.35156 5.49967 3.35156C4.31493 3.35156 3.35107 4.31542 3.35107 5.50016C3.35107 6.08324 3.58465 6.6127 3.96299 7.0002C3.96871 7.00664 3.97419 7.01324 3.98038 7.01943C3.98656 7.02561 3.99316 7.03107 3.99961 7.03681C4.3871 7.41515 4.91658 7.64873 5.49965 7.64873C6.68438 7.64873 7.64824 6.68487 7.64824 5.50013C7.64824 4.91705 7.41467 4.38759 7.03632 4.00009C7.0306 3.99365 7.02512 3.98705 7.01894 3.98086ZM5.49967 4.21098C5.69845 4.21098 5.88682 4.25627 6.05512 4.33697L4.33648 6.05559C4.25578 5.88729 4.21049 5.6989 4.21049 5.50013C4.21051 4.78929 4.78883 4.21098 5.49967 4.21098ZM5.49967 6.78929C5.30088 6.78929 5.11251 6.744 4.94421 6.6633L6.66285 4.94468C6.74355 5.11298 6.78884 5.30137 6.78884 5.50013C6.78882 6.21097 6.21051 6.78929 5.49967 6.78929Z" fill="#696969"/>
</svg>
