<svg width="24" height="24" viewBox="0 0 24 24" fill="none" xmlns="http://www.w3.org/2000/svg">
<g clip-path="url(#clip0_260_1808)">
<path d="M23.9128 9.15706C23.7048 8.51699 23.1619 8.05928 22.4959 7.96254L16.331 7.06675L13.574 1.48038C13.2761 0.876859 12.673 0.501953 12 0.501953C11.327 0.501953 10.7239 0.876859 10.426 1.48038L7.66902 7.06675L1.50413 7.96254C0.838115 8.05928 0.295203 8.51699 0.0872063 9.15706C-0.120738 9.79713 0.0494077 10.4865 0.53134 10.9564L4.99231 15.3047L3.93922 21.4447C3.82546 22.1081 4.09298 22.7658 4.63751 23.1615C4.93937 23.3807 5.29611 23.4966 5.66924 23.4966C5.95257 23.4966 6.23497 23.4269 6.48588 23.295L11.9999 20.3961L17.5141 23.295C17.7649 23.4269 18.0473 23.4966 18.3307 23.4966C18.7039 23.4966 19.0606 23.3807 19.3625 23.1615C19.907 22.7658 20.1745 22.1081 20.0608 21.4448L19.0077 15.3047L23.4687 10.9563C23.9506 10.4865 24.1208 9.79708 23.9128 9.15706ZM22.3314 9.78972L17.5638 14.437C17.3718 14.6241 17.2842 14.8937 17.3295 15.158L18.455 21.7201C18.4631 21.7678 18.444 21.815 18.4049 21.8434C18.3775 21.8633 18.3494 21.8675 18.3306 21.8675C18.3101 21.8675 18.2904 21.8626 18.2721 21.853L12.379 18.7548C12.2604 18.6924 12.1302 18.6613 12 18.6613C11.8698 18.6613 11.7396 18.6924 11.6209 18.7549L5.72777 21.8531C5.70949 21.8627 5.68981 21.8676 5.66919 21.8676C5.6505 21.8676 5.62236 21.8634 5.595 21.8435C5.5559 21.8151 5.53674 21.7679 5.54488 21.7202L6.67038 15.1581C6.7157 14.8939 6.62809 14.6242 6.43613 14.4371L1.66848 9.78987C1.63387 9.75615 1.62165 9.7066 1.63659 9.66066C1.65157 9.61466 1.69052 9.58177 1.73839 9.57483L8.32705 8.61744C8.59237 8.57885 8.82172 8.41226 8.94039 8.17184L11.887 2.20143C11.9084 2.1581 11.9516 2.13116 12 2.13116C12.0483 2.13116 12.0916 2.1581 12.113 2.20143L15.0595 8.17168C15.1782 8.4121 15.4075 8.57875 15.6728 8.61728L22.2615 9.57467C22.3094 9.58167 22.3484 9.61451 22.3633 9.6605C22.3782 9.70644 22.366 9.75599 22.3314 9.78972Z" fill="#696969"/>
</g>
<defs>
<clipPath id="clip0_260_1808">
<rect width="24" height="24" fill="white"/>
</clipPath>
</defs>
</svg>
