<svg width="22" height="18" viewBox="0 0 22 18" fill="none" xmlns="http://www.w3.org/2000/svg">
<path d="M4.82031 10.1232V13.1163C4.82031 13.1163 7.35841 15.9224 10.9294 15.9224C15.421 15.9224 17.0379 13.1163 17.0379 13.1163V9.86914L11.7642 12.9513C11.3877 13.1715 10.9228 13.1868 10.5324 12.9905L4.82031 10.1232Z" fill="#232323"/>
<path d="M11.0609 6.56015C10.4018 6.56015 9.74529 6.42247 9.39078 6.13647L3.0502 8.33269L10.5747 12.0993C10.9638 12.2941 11.4267 12.2795 11.8012 12.0594L20.5695 6.94791C20.9785 6.7098 21.2239 6.26617 21.21 5.7926C21.196 5.31904 20.9206 4.89203 20.4983 4.68052L11.4174 0.136424C11.0283 -0.058456 10.5667 -0.0438234 10.1909 0.175666L1.42265 5.28645C1.0136 5.52456 0.768174 5.96819 0.782806 6.44176C0.798104 6.91466 1.07147 7.34166 1.49515 7.55384L1.47586 12.1944C1.02225 12.3533 0.697671 12.7877 0.697671 13.2938C0.697671 13.6696 0.874593 14.0035 1.15128 14.219C1.06349 14.8595 0.764848 15.3204 0.411004 15.6503C0.127663 15.9137 -0.0219884 16.2908 0.002621 16.6779C0.0272304 17.0637 0.224106 17.4196 0.539373 17.6444L0.700331 17.7601C0.99897 17.9729 1.3741 18.0501 1.7326 17.9676C2.0911 17.8851 2.39772 17.6583 2.57663 17.3391C3.19386 16.2363 2.89456 14.8043 2.69037 14.1172C2.90121 13.9071 3.03224 13.6151 3.03224 13.2938C3.03224 12.7897 2.71165 12.3593 2.2627 12.197L2.28132 7.76601L9.16464 5.38222C9.2245 5.09023 9.51915 4.82153 9.51915 4.82153C9.49654 4.90068 9.5411 5.86177 10.997 5.86177C11.8338 5.86177 12.5102 5.59506 12.5102 5.04966C12.5102 4.94989 12.4869 4.84148 12.4437 4.72974C12.6791 5.01973 12.8195 5.34697 12.8195 5.61501C12.8208 6.24954 12.0326 6.56015 11.0609 6.56015Z" fill="#232323"/>
</svg>
