<svg width="23" height="20" viewBox="0 0 23 20" fill="none" xmlns="http://www.w3.org/2000/svg">
<path d="M1.03032 2.72665H21.6364C22.2055 2.72665 22.6668 2.26535 22.6668 1.69633C22.6668 1.12732 22.2055 0.666016 21.6364 0.666016H1.03032C0.461303 0.666016 0 1.12732 0 1.69633C0 2.26535 0.461303 2.72665 1.03032 2.72665Z" fill="#232323"/>
<path d="M1.03032 14.7266H21.6364C22.2055 14.7266 22.6668 14.2653 22.6668 13.6963C22.6668 13.1273 22.2055 12.666 21.6364 12.666H1.03032C0.461303 12.666 0 13.1273 0 13.6963C0 14.2653 0.461303 14.7266 1.03032 14.7266Z" fill="#232323"/>
<path d="M1.03032 6.72665H21.6364C22.2055 6.72665 22.6668 6.26535 22.6668 5.69633C22.6668 5.12732 22.2055 4.66602 21.6364 4.66602H1.03032C0.461303 4.66602 0 5.12732 0 5.69633C0 6.26535 0.461303 6.72665 1.03032 6.72665Z" fill="#232323"/>
<path d="M1.03032 10.9688H21.6364C22.2054 10.9688 22.6667 10.5075 22.6667 9.93852C22.6667 9.36951 22.2054 8.9082 21.6364 8.9082H1.03032C0.461303 8.9082 0 9.36951 0 9.93852C0 10.5075 0.461303 10.9688 1.03032 10.9688Z" fill="#232323"/>
<path d="M1.03032 19.211H21.6364C22.2055 19.211 22.6668 18.7497 22.6668 18.1807C22.6668 17.6117 22.2055 17.1504 21.6364 17.1504H1.03032C0.461303 17.1504 0 17.6117 0 18.1807C0 18.7497 0.461303 19.211 1.03032 19.211Z" fill="#232323"/>
</svg>
