<svg width="23" height="20" viewBox="0 0 23 20" fill="none" xmlns="http://www.w3.org/2000/svg">
<path d="M1.03032 2.72665H21.6364C22.2055 2.72665 22.6668 2.26535 22.6668 1.69633C22.6668 1.12732 22.2055 0.666016 21.6364 0.666016H1.03032C0.461303 0.666016 0 1.12732 0 1.69633C0 2.26535 0.461303 2.72665 1.03032 2.72665Z" fill="#232323"/>
<path d="M1.03129 4.78711C0.462279 4.78711 0.000976562 5.24841 0.000976562 5.81743C0.000976562 6.38644 0.462279 6.84774 1.03129 6.84774H16.1424C16.7114 6.84774 17.1727 6.38644 17.1727 5.81743C17.1727 5.24841 16.7114 4.78711 16.1424 4.78711H1.03129Z" fill="#232323"/>
<path d="M1.03032 10.9688H21.6364C22.2054 10.9688 22.6667 10.5075 22.6667 9.93852C22.6667 9.36951 22.2054 8.9082 21.6364 8.9082H1.03032C0.461303 8.9082 0 9.36951 0 9.93852C0 10.5075 0.461303 10.9688 1.03032 10.9688Z" fill="#232323"/>
<path d="M1.03032 19.211H21.6364C22.2055 19.211 22.6668 18.7497 22.6668 18.1807C22.6668 17.6117 22.2055 17.1504 21.6364 17.1504H1.03032C0.461303 17.1504 0 17.6117 0 18.1807C0 18.7497 0.461303 19.211 1.03032 19.211Z" fill="#232323"/>
<path d="M1.03129 13.0293C0.462279 13.0293 0.000976562 13.4906 0.000976562 14.0596C0.000976562 14.6286 0.462279 15.0899 1.03129 15.0899H16.1424C16.7114 15.0899 17.1727 14.6286 17.1727 14.0596C17.1727 13.4906 16.7114 13.0293 16.1424 13.0293H1.03129Z" fill="#232323"/>
</svg>
