<svg id="Layer_1" data-name="Layer 1" xmlns="http://www.w3.org/2000/svg" viewBox="0 0 16.45 21"><defs><style>.cls-1{fill:none;}.cls-1,.cls-2{stroke:#696969;stroke-miterlimit:10;stroke-width:1.5px;}.cls-2{fill:#fff;}.cls-3{fill:#696969;}</style></defs><path class="cls-1" d="M8.23.75h0A5.28,5.28,0,0,1,13.5,6V7.36a.48.48,0,0,1-.48.48H3.43a.48.48,0,0,1-.48-.48V6A5.28,5.28,0,0,1,8.23.75Z"/><rect class="cls-2" x="0.75" y="7.69" width="14.95" height="12.56" rx="1.1"/><circle class="cls-2" cx="8.23" cy="12.66" r="1.71"/><path class="cls-3" d="M7.46,14H9a0,0,0,0,1,0,0v3a.76.76,0,0,1-.76.76h0A.76.76,0,0,1,7.46,17V14a0,0,0,0,1,0,0Z"/></svg>