<svg width="90" height="90" viewBox="0 0 90 90" fill="none" xmlns="http://www.w3.org/2000/svg">
<path d="M58.929 0H31.072C26 0 21.8885 4.11144 21.8885 9.18437V80.8156C21.8885 85.8877 26 90 31.072 90H58.929C64.0001 90 68.1125 85.8886 68.1125 80.8156V9.18347C68.1125 4.11144 64.0001 0 58.929 0ZM58.0878 5.56925C58.7641 5.56925 59.313 6.11727 59.313 6.79449C59.313 7.47171 58.7641 8.01972 58.0878 8.01972C57.4115 8.01972 56.8626 7.47171 56.8626 6.79449C56.8626 6.11727 57.4115 5.56925 58.0878 5.56925ZM53.521 6.46033C53.8899 6.46033 54.1893 6.75974 54.1893 7.12864C54.1893 7.49755 53.8899 7.79695 53.521 7.79695C53.1521 7.79695 52.8527 7.49755 52.8527 7.12864C52.8527 6.75974 53.1512 6.46033 53.521 6.46033ZM51.3494 6.46033C51.7184 6.46033 52.0178 6.75974 52.0178 7.12864C52.0178 7.49755 51.7184 7.79695 51.3494 7.79695C50.9805 7.79695 50.6811 7.49755 50.6811 7.12864C50.6811 6.75974 50.9805 6.46033 51.3494 6.46033ZM39.8759 4.00986H50.1233C50.4307 4.00986 50.6802 4.25847 50.6802 4.56679C50.6802 4.8751 50.4307 5.12371 50.1233 5.12371H39.8759C39.5685 5.12371 39.319 4.8751 39.319 4.56679C39.319 4.25847 39.5685 4.00986 39.8759 4.00986ZM48.9061 87.6012H41.0949C39.8064 87.6012 38.7629 86.5569 38.7629 85.2693H51.2381C51.2381 86.5569 50.1937 87.6012 48.9061 87.6012ZM65.0988 80.4013H24.9022V9.59694H65.0988V80.4013Z" fill="#232323"/>
</svg>
