<svg width="90" height="90" viewBox="0 0 90 90" fill="none" xmlns="http://www.w3.org/2000/svg">
<path d="M8.85099 71.4566H30.6251V78.6318H22.6262C20.8406 78.6318 19.3931 80.0793 19.3931 81.8649C19.3931 83.6505 20.8406 85.098 22.6262 85.098H30.6251H59.3747H67.3739C69.1592 85.098 70.607 83.6505 70.607 81.8649C70.607 80.0793 69.1592 78.6318 67.3739 78.6318H59.3747V71.4566H81.1491C85.988 71.4566 89.9245 67.5199 89.9245 62.6809V13.6779C89.9245 8.83912 85.988 4.90234 81.1491 4.90234H8.85099C4.01221 4.90234 0.0754395 8.83912 0.0754395 13.6779V62.6811C0.0754395 67.5199 4.01221 71.4566 8.85099 71.4566ZM52.9085 78.6318H37.0913V71.4566H52.9085V78.6318ZM6.54164 13.6779C6.54164 12.4025 7.57557 11.3685 8.85099 11.3685H81.1491C82.4244 11.3685 83.4583 12.4025 83.4583 13.6779V62.6811C83.4583 63.9565 82.4244 64.9904 81.1491 64.9904H59.3747V64.903H30.6251V64.9904H8.85099C7.57557 64.9904 6.54164 63.9565 6.54164 62.6811V13.6779Z" fill="#232323"/>
<path d="M67.3739 85.1728H22.6263C20.802 85.1728 19.3177 83.6886 19.3177 81.8642C19.3177 80.0398 20.8019 78.5556 22.6263 78.5556H30.5496V71.5314H8.85102C3.97058 71.5314 0 67.5608 0 62.6802V13.6772C0 8.79676 3.97058 4.82617 8.85102 4.82617H81.1491C86.0294 4.82617 90 8.79676 90 13.6772V62.6804C90 67.561 86.0294 71.5316 81.1491 71.5316H59.4502V78.5558H67.3739C69.1983 78.5558 70.6825 80.0399 70.6825 81.8643C70.6825 83.6887 69.1983 85.1728 67.3739 85.1728ZM22.6263 78.7066C20.8852 78.7066 19.4686 80.1231 19.4686 81.8642C19.4686 83.6053 20.8852 85.0218 22.6263 85.0218H67.3739C69.115 85.0218 70.5315 83.6053 70.5315 81.8642C70.5315 80.1231 69.115 78.7066 67.3739 78.7066H59.2993V71.3805H81.1491C85.9462 71.3805 89.8491 67.4777 89.8491 62.6802V13.6772C89.8491 8.87992 85.9464 4.97711 81.1491 4.97711H8.85102C4.05375 4.97711 0.150938 8.87992 0.150938 13.6772V62.6804C0.150938 67.4777 4.05375 71.3806 8.85102 71.3806H30.7006V78.7067L22.6263 78.7066ZM52.984 78.7066H37.0158V71.3805H52.984V78.7066ZM37.1668 78.5556H52.8331V71.5314H37.1668V78.5556ZM81.1491 65.0651H59.2993V64.9777H30.7006V65.0651H8.85102C7.53605 65.0651 6.4662 63.9952 6.4662 62.6802V13.6772C6.4662 12.3622 7.53605 11.2924 8.85102 11.2924H81.1491C82.4641 11.2924 83.5338 12.3622 83.5338 13.6772V62.6804C83.5338 63.9952 82.4641 65.0651 81.1491 65.0651ZM59.4502 64.9141H81.1491C82.3808 64.9141 83.3829 63.912 83.3829 62.6802V13.6772C83.3829 12.4454 82.3808 11.4433 81.1491 11.4433H8.85102C7.61922 11.4433 6.61714 12.4454 6.61714 13.6772V62.6804C6.61714 63.9122 7.61922 64.9143 8.85102 64.9143H30.5496V64.8269H59.4502V64.9141Z" fill="#232323"/>
</svg>
