<svg width="24" height="24" viewBox="0 0 24 24" fill="none" xmlns="http://www.w3.org/2000/svg">
<g clip-path="url(#clip0_260_1820)">
<path d="M19.394 8.55487C20.4947 7.94109 21.6328 7.3064 22.8049 6.183C24.1043 4.93772 24.4192 2.94057 23.3754 1.48422C22.0968 -0.29974 19.5536 -0.505474 18.0184 1.02982C16.7856 2.26262 16.112 3.45512 15.4605 4.60838C14.8277 5.72878 14.2299 6.78708 13.1327 7.88423L12.4967 8.52022L10.7856 7.66471C9.4137 6.97879 7.78588 7.26487 6.72749 8.32326C6.34696 8.70379 0.607092 14.4437 0.205984 14.8448C-0.0686092 15.1194 -0.0686092 15.5645 0.205984 15.8391L8.16092 23.7941C8.43547 24.0686 8.88068 24.0686 9.15528 23.7941C9.55648 23.3929 15.2963 17.653 15.6768 17.2726C16.7485 16.2009 17.0131 14.57 16.3353 13.2144L15.4798 11.5033L16.1158 10.8673C17.2107 9.77248 18.2713 9.18107 19.394 8.55487ZM8.65812 22.3025L7.66377 21.3081L9.15532 19.8166C9.42992 19.542 9.42992 19.0968 9.15532 18.8222C8.88078 18.5477 8.43556 18.5476 8.16097 18.8222L6.66941 20.3138L5.67501 19.3194L7.16656 17.8278C7.44116 17.5532 7.44116 17.1081 7.16656 16.8335C6.89202 16.5589 6.4468 16.5589 6.17221 16.8335L4.68065 18.325L3.68625 17.3306L5.17781 15.8391C5.4524 15.5645 5.4524 15.1193 5.17781 14.8447C4.90322 14.5702 4.45809 14.5701 4.18345 14.8447L2.6919 16.3363L1.69754 15.3419L4.68065 12.3588L11.6412 19.3194L8.65812 22.3025ZM12.6355 18.3251L5.67501 11.3645L6.66936 10.3702L13.6299 17.3307L12.6355 18.3251ZM15.1215 9.87294L14.1271 10.8673C13.9132 11.0813 13.8601 11.4082 13.9954 11.6789L15.0776 13.8433C15.4843 14.6567 15.3255 15.6352 14.6825 16.2782L14.6243 16.3364L7.66372 9.37578L7.72189 9.31761C8.36492 8.67463 9.34339 8.51582 10.1568 8.9225L12.3212 10.0047C12.5918 10.14 12.9188 10.087 13.1328 9.87294L14.1271 8.87858C15.3599 7.64577 16.0335 6.45328 16.685 5.30002C17.3178 4.17957 17.9157 3.12132 19.0128 2.02417C19.9053 1.13177 21.434 1.18957 22.2324 2.30345C22.8332 3.14176 22.661 4.37316 21.8319 5.16774C20.7902 6.16617 19.7793 6.72989 18.7091 7.3267C17.5517 7.97221 16.3548 8.63966 15.1215 9.87294Z" fill="#696969"/>
</g>
<defs>
<clipPath id="clip0_260_1820">
<rect width="24" height="24" fill="white" transform="matrix(-1 0 0 -1 24 24)"/>
</clipPath>
</defs>
</svg>
