<svg width="24" height="24" viewBox="0 0 24 24" fill="none" xmlns="http://www.w3.org/2000/svg">
<path d="M6.18321 22.2314C4.82447 22.2314 3.71877 21.0933 3.71877 19.6952V4.30484C3.71877 2.90674 4.82447 1.76857 6.18321 1.76857H11.9715V6.01468C11.9715 8.38774 13.848 10.3187 16.1547 10.3187H20.2812V15.9758C20.2812 16.2202 20.3774 16.4413 20.533 16.6013C20.6885 16.7612 20.9033 16.8601 21.1406 16.8601C21.6152 16.8601 22 16.4646 22 15.9758V9.43437C21.9759 9.20446 21.9152 8.97804 21.7482 8.80915L13.4385 0.259067C13.2743 0.0880244 13.0544 0.0232893 12.8309 0H6.18321C3.87655 0 2 1.93092 2 4.30484V19.6952C2 22.0691 3.87655 24 6.18321 24H14.2022C14.6768 24 15.0616 23.6045 15.0616 23.1157C15.0616 22.8713 14.9654 22.6502 14.8098 22.4902C14.6543 22.3303 14.4394 22.2314 14.2022 22.2314H6.18321ZM13.6902 6.01468V3.019L19.0656 8.55009H16.1547C14.7959 8.55009 13.6902 7.41278 13.6902 6.01468Z" fill="#696969"/>
<path d="M17.6721 17.0335C17.5381 17.1689 17.4547 17.3547 17.4547 17.5605V18.906H16.1096C15.9035 18.906 15.7171 18.9895 15.5815 19.124C15.5802 19.1253 15.579 19.1265 15.5778 19.1278C15.4432 19.2633 15.3596 19.4497 15.3596 19.656C15.3596 20.0706 15.6954 20.406 16.1096 20.406H17.4547V21.7507C17.4547 22.1653 17.7905 22.5007 18.2047 22.5007C18.6189 22.5007 18.9547 22.1653 18.9547 21.7507V20.406H20.2994C20.7136 20.406 21.0494 20.0706 21.0494 19.656C21.0494 19.2415 20.7136 18.906 20.2994 18.906H18.9547V17.5605C18.9547 17.146 18.6189 16.8105 18.2047 16.8105C17.9962 16.8106 17.8084 16.8959 17.6721 17.0335Z" fill="#696969"/>
</svg>
