<svg xmlns="http://www.w3.org/2000/svg" viewBox="0 0 24 24" width="100" height="100" fill="currentColor">
  <path d="M19.43 12.98c.04-.32.07-.66.07-1s-.03-.68-.07-1l2.11-1.65a.5.5 0 0 0 .11-.64l-2-3.46a.5.5 0 0 0-.6-.22l-2.49 1a7.07 7.07 0 0 0-1.73-.99L14 2.5a.5.5 0 0 0-.5-.5h-4a.5.5 0 0 0-.5.5l-.38 2.52a7.07 7.07 0 0 0-1.73.99l-2.49-1a.5.5 0 0 0-.6.22l-2 3.46a.5.5 0 0 0 .11.64L4.57 11c-.04.32-.07.66-.07 1s.03.68.07 1L2.46 14.65a.5.5 0 0 0-.11.64l2 3.46a.5.5 0 0 0 .6.22l2.49-1c.53.4 1.1.73 1.73.99L10 21.5a.5.5 0 0 0 .5.5h4a.5.5 0 0 0 .5-.5l.38-2.52c.63-.26 1.2-.59 1.73-.99l2.49 1a.5.5 0 0 0 .6-.22l2-3.46a.5.5 0 0 0-.11-.64L19.43 12.98zM12 15.5a3.5 3.5 0 1 1 0-7 3.5 3.5 0 0 1 0 7z"/>
</svg>
