<svg width="37" height="37" viewBox="0 0 37 37" fill="none" xmlns="http://www.w3.org/2000/svg">
<rect width="37" height="37" rx="5" fill="#F9F9F9"/>
<path d="M9.18182 27.5H28.8182C30.0208 27.5 31 28.061 31 28.75C31 29.439 30.0208 30 28.8182 30H9.18182C7.97924 30 7 29.439 7 28.75C7 28.061 7.97924 27.5 9.18182 27.5Z" fill="#232323"/>
<path d="M23.6667 20.9778C23.2222 20.6 22.5556 20.6 22.1111 20.9778L20.1111 22.6778V7.94444C20.1111 7.37778 19.6667 7 19 7C18.3333 7 17.8889 7.37778 17.8889 7.94444V22.6778L15.8889 20.9778C15.4444 20.6 14.7778 20.6 14.3333 20.9778C13.8889 21.3556 13.8889 21.9222 14.3333 22.3L18.2222 25.6056C18.4444 25.7944 18.7778 25.8889 19 25.8889C19.2222 25.8889 19.5556 25.7944 19.7778 25.6056L23.6667 22.3C24.1111 21.9222 24.1111 21.2611 23.6667 20.9778Z" fill="#232323"/>
</svg>
