<svg width="24" height="24" viewBox="0 0 24 24" fill="none" xmlns="http://www.w3.org/2000/svg">
<path fill-rule="evenodd" clip-rule="evenodd" d="M4 5C4 4.44772 4.44772 4 5 4H19C19.5523 4 20 4.44772 20 5V19C20 21.7523 17.7523 24 15 24H9C6.24772 24 4 21.7523 4 19V5ZM6 6V19C6 20.6477 7.35228 22 9 22H15C16.6477 22 18 20.6477 18 19V6H6Z" fill="#696969"/>
<path fill-rule="evenodd" clip-rule="evenodd" d="M2 5C2 4.44772 2.44772 4 3 4H21C21.5523 4 22 4.44772 22 5C22 5.55228 21.5523 6 21 6H3C2.44772 6 2 5.55228 2 5Z" fill="#696969"/>
<path fill-rule="evenodd" clip-rule="evenodd" d="M8 3C8 1.34772 9.34772 0 11 0H13C14.6523 0 16 1.34772 16 3V5C16 5.55228 15.5523 6 15 6H9C8.44772 6 8 5.55228 8 5V3ZM11 2C10.4523 2 10 2.45228 10 3V4H14V3C14 2.45228 13.5477 2 13 2H11Z" fill="#696969"/>
<path fill-rule="evenodd" clip-rule="evenodd" d="M10 9C10.5523 9 11 9.44772 11 10V18C11 18.5523 10.5523 19 10 19C9.44772 19 9 18.5523 9 18V10C9 9.44772 9.44772 9 10 9Z" fill="#696969"/>
<path fill-rule="evenodd" clip-rule="evenodd" d="M14 9C14.5523 9 15 9.44772 15 10V18C15 18.5523 14.5523 19 14 19C13.4477 19 13 18.5523 13 18V10C13 9.44772 13.4477 9 14 9Z" fill="#696969"/>
</svg>
