<svg xmlns="http://www.w3.org/2000/svg" viewBox="0 0 24 24"><defs><style>.cls-1{fill:none;stroke-linecap:round;}.cls-1,.cls-2{stroke:#696969;stroke-miterlimit:10;stroke-width:1.5px;}.cls-2{fill:#fff;}.cls-3{fill:#696969;}</style></defs><g id="Layer_3" data-name="Layer 3"><path class="cls-1" d="M17.63,9.24H8a.49.49,0,0,1-.48-.48V7.42a5.27,5.27,0,0,1,5.28-5.27h0a5.25,5.25,0,0,1,5.05,3.76"/><rect class="cls-2" x="5.25" y="8.94" width="14.95" height="12.56" rx="1.1"/><circle class="cls-2" cx="12.87" cy="13.78" r="1.86"/><path class="cls-3" d="M12,15.2H13.7a0,0,0,0,1,0,0v3.32a.76.76,0,0,1-.76.76H12.8a.76.76,0,0,1-.76-.76V15.2a0,0,0,0,1,0,0Z"/></g></svg>