<svg id="Layer_1" data-name="Layer 1" xmlns="http://www.w3.org/2000/svg" viewBox="0 0 16.45 20.86"><defs><style>.cls-1,.cls-2{fill:none;}.cls-1,.cls-2,.cls-3{stroke:#696969;stroke-miterlimit:10;stroke-width:1.5px;}.cls-2{stroke-linecap:round;}.cls-3{fill:#fff;}.cls-4{fill:#696969;}</style></defs><path class="cls-1" d="M17.28,4.91" transform="translate(-3.77 -1.57)"/><path class="cls-1" d="M17.26,7.13" transform="translate(-3.77 -1.57)"/><path class="cls-2" d="M16.8,9.41H7.2a.48.48,0,0,1-.48-.48V7.6A5.28,5.28,0,0,1,12,2.32h0a5.28,5.28,0,0,1,4.36,2.31,4,4,0,0,1,.27.44c.07.12.13.25.19.37" transform="translate(-3.77 -1.57)"/><rect class="cls-3" x="0.75" y="7.54" width="14.95" height="12.56" rx="1.1"/><circle class="cls-3" cx="8.37" cy="12.38" r="1.86"/><path class="cls-4" d="M7.54,13.8H9.2a0,0,0,0,1,0,0v3.32a.76.76,0,0,1-.76.76H8.3a.76.76,0,0,1-.76-.76V13.8a0,0,0,0,1,0,0Z"/></svg>