<svg width="24" height="24" viewBox="0 0 24 24" fill="none" xmlns="http://www.w3.org/2000/svg">
<path d="M11.667 5.66602L12.7337 6.99935H14.689L13.3557 5.66602H11.667Z" fill="#232323"/>
<path d="M19.022 5.66602H17.3333L16 6.99935H17.9553L19.022 5.66602Z" fill="#232323"/>
<path d="M16.3907 4.86134L15.1953 3.66602L14 4.86134H16.3907Z" fill="#232323"/>
<path d="M14.7067 3.33333L14.3734 3H12.8447C12.7334 3 12.6294 3.05566 12.5674 3.14835L11.333 5.00001H13.04L14.7067 3.33333Z" fill="#232323"/>
<path d="M16.3907 5.66602H14L15.1953 6.86134L16.3907 5.66602Z" fill="#232323"/>
<path d="M19.0397 5.00001L17.8053 3.14835C17.7433 3.0557 17.6393 3 17.528 3H15.9994L15.666 3.33333L17.3327 5.00001H19.0397Z" fill="#232323"/>
<path d="M16.8697 8.52901L17.56 7.66602H13.1067L13.7944 8.52566C13.1007 8.70067 12.4404 8.99701 11.8334 9.40268C10.789 8.70466 9.58538 8.33269 8.33336 8.33269C4.84099 8.33265 2 11.1737 2 14.666C2 18.1583 4.84099 20.9993 8.33332 20.9993C9.58531 20.9993 10.789 20.6273 11.8333 19.9293C12.8777 20.6274 14.0813 20.9993 15.3334 20.9993C18.8257 20.9993 21.6667 18.1583 21.6667 14.666C21.6667 11.7043 19.6207 9.21834 16.8697 8.52901ZM12.3333 14.666C12.3333 15.3454 12.16 16.0007 11.8333 16.59C11.5067 16.0007 11.3333 15.3453 11.3333 14.666C11.3333 13.9867 11.5067 13.3313 11.8333 12.742C12.16 13.3313 12.3333 13.9867 12.3333 14.666ZM8.33332 18.666C6.12766 18.666 4.3333 16.8716 4.3333 14.666C4.3333 12.4603 6.12762 10.666 8.33332 10.666C8.95298 10.666 9.56264 10.8136 10.118 11.0926C9.38799 12.151 8.99999 13.3773 8.99999 14.666C8.99999 15.9546 9.38799 17.181 10.118 18.2393C9.56299 18.5183 8.95301 18.666 8.33332 18.666ZM15.3334 20.3327C14.1444 20.3327 13.0017 19.9613 12.0284 19.259C11.5907 18.9433 11.2014 18.5683 10.87 18.1443C10.0827 17.137 9.6667 15.934 9.6667 14.666C9.6667 13.502 10.0177 12.3926 10.684 11.4393C10.6934 11.446 10.7033 11.452 10.7127 11.4586C10.835 11.5496 10.9527 11.6459 11.0637 11.75C11.083 11.7683 11.1007 11.7886 11.1197 11.8073C11.21 11.8953 11.2963 11.988 11.3784 12.0846C11.392 12.1007 11.405 12.1176 11.4183 12.134C10.9257 12.8913 10.6667 13.7613 10.6667 14.666C10.6667 15.656 10.977 16.605 11.564 17.41C11.9226 17.9016 12.3667 18.313 12.884 18.633C13.624 19.0906 14.4707 19.3326 15.3334 19.3326C17.9067 19.3326 20 17.2393 20 14.6659C20 12.0926 17.9067 9.99924 15.3334 9.99924C14.568 9.99924 13.815 10.1896 13.1384 10.5523C13.1223 10.5339 13.1044 10.5173 13.0884 10.4989C13.0197 10.4203 12.948 10.3449 12.8754 10.2699C12.835 10.2283 12.7957 10.1856 12.7544 10.1449C12.6617 10.0543 12.5654 9.96759 12.4674 9.88293C12.445 9.86392 12.425 9.8426 12.4027 9.82393C13.2893 9.28325 14.2937 8.99928 15.3334 8.99928C18.458 8.99928 21 11.5413 21 14.6659C21 17.7906 18.458 20.3327 15.3334 20.3327ZM13.5487 11.0927C14.1037 10.8137 14.7137 10.666 15.3334 10.666C17.539 10.666 19.3334 12.4603 19.3334 14.666C19.3334 16.8717 17.5391 18.666 15.3334 18.666C14.7137 18.666 14.104 18.5184 13.5487 18.2394C14.2787 17.181 14.6667 15.9547 14.6667 14.666C14.6667 13.3773 14.2787 12.151 13.5487 11.0927Z" fill="#232323"/>
</svg>
