<svg width="24" height="24" viewBox="0 0 24 24" fill="none" xmlns="http://www.w3.org/2000/svg">
<g clip-path="url(#clip0_260_24326)">
<path d="M23.6957 22.2929L16.0326 14.6298C17.2703 13.0882 18.0113 11.1307 18.0113 9C18.0113 4.0297 13.9816 0 9.01134 0C4.04104 0 0.0113373 4.0297 0.0113373 9C0.0113373 13.9703 4.04104 18 9.01134 18C11.1304 18 13.0782 17.2671 14.6159 16.0416L22.2814 23.7071C22.6719 24.0976 23.3051 24.0976 23.6956 23.7071C24.0862 23.3165 24.0862 22.6834 23.6957 22.2929ZM2.0114 8.99995C2.0114 5.13422 5.1457 1.99997 9.01138 1.99997C12.8771 1.99997 16.0114 5.13422 16.0114 8.99995C16.0114 10.9384 15.2232 12.6929 13.9499 13.9605C13.9498 13.9606 13.9496 13.9607 13.9495 13.9609C13.9495 13.9609 13.9493 13.961 13.9493 13.9611C12.6834 15.2211 10.9384 16 9.01138 16C5.1457 15.9999 2.0114 12.8657 2.0114 8.99995Z" fill="#696969"/>
<path d="M11.9886 8H5.9886C5.43632 8 4.98862 8.4477 4.98862 8.99998C4.98862 9.55227 5.43632 9.99997 5.9886 9.99997H11.9886C12.5409 9.99997 12.9886 9.55227 12.9886 8.99998C12.9886 8.4477 12.5409 8 11.9886 8Z" fill="#696969"/>
<path d="M7.98862 6.00002V12C7.98862 12.5523 8.43632 13 8.9886 13C9.54088 13 9.98858 12.5523 9.98858 12V6.00002C9.98858 5.44773 9.54088 5.00003 8.9886 5.00003C8.43632 5.00003 7.98862 5.44773 7.98862 6.00002Z" fill="#696969"/>
</g>
<defs>
<clipPath id="clip0_260_24326">
<rect width="24" height="24" fill="white"/>
</clipPath>
</defs>
</svg>
