<svg width="126" height="126" viewBox="0 0 126 126" fill="none" xmlns="http://www.w3.org/2000/svg">
<path d="M112.219 64.9688C112.219 63.9056 111.353 63.0394 110.329 63H110.25C104.58 63 101.588 60.3619 100.091 57.5662C98.5556 54.7706 98.4375 51.8175 98.4375 51.1875C98.4375 50.085 97.5319 49.2188 96.4688 49.2188C95.4056 49.2188 94.5 50.085 94.5 51.1875V51.3056C94.5 56.1094 92.61 59.4956 88.83 61.425C85.8375 62.9606 82.7269 63 82.6875 63C81.6244 63 80.7581 63.8662 80.7188 64.9294C80.7188 65.9925 81.5456 66.8981 82.6087 66.9375C94.3031 67.4494 94.5 78.2775 94.5 78.75C94.5 79.8525 95.3662 80.7188 96.4688 80.7188C97.5713 80.7188 98.3981 79.8919 98.4375 78.8288V78.75C98.4375 67.3312 109.029 66.9375 110.25 66.9375C111.353 66.9375 112.219 66.0713 112.219 64.9688ZM51.1875 76.7812C52.2506 76.7812 53.1169 75.9544 53.1562 74.8913V74.8125C53.1562 45.675 81.4669 45.2812 82.6875 45.2812C83.79 45.2812 84.6562 44.415 84.6562 43.3125C84.6562 42.21 83.79 41.3831 82.7663 41.3438H82.6875C53.9438 41.3438 53.1562 13.7419 53.1562 11.8519C53.1562 10.71 52.2506 9.84375 51.1875 9.84375C50.1244 9.84375 49.2188 10.71 49.2188 11.8125V12.2062C49.2188 20.7112 46.6987 27.5625 41.8162 32.5238C33.1931 41.2256 19.8056 41.3438 19.6875 41.3438C18.6244 41.3438 17.7581 42.21 17.7188 43.2731C17.7188 44.3363 18.5456 45.2419 19.6087 45.2812C48.7856 46.5412 49.2188 73.6706 49.2188 74.8125C49.2188 75.9544 50.085 76.7812 51.1875 76.7812ZM90.6413 92.5312H90.5625C81.9 92.5312 77.49 88.3575 75.2062 84.0656C72.9619 79.7738 72.8438 75.3244 72.8438 74.8125C72.8438 73.71 71.9381 72.8438 70.875 72.8438C69.8119 72.8438 68.9062 73.71 68.9062 74.8125V75.0094C68.9062 80.1675 67.41 84.2625 64.4962 87.2156C59.3381 92.4525 51.2663 92.5312 51.1875 92.5312C50.1244 92.5312 49.2581 93.3975 49.2188 94.4606C49.2188 95.5238 50.0456 96.4294 51.1087 96.4688C68.6306 97.2169 68.9062 113.518 68.9062 114.188C68.9062 115.29 69.7725 116.156 70.875 116.156C71.9775 116.156 72.8044 115.329 72.8438 114.266V114.188C72.8438 105.446 77.0963 101.036 81.4275 98.7919C85.7588 96.5475 90.2081 96.4688 90.5625 96.4688C91.665 96.4688 92.5312 95.6025 92.5312 94.5C92.5312 93.3975 91.665 92.5706 90.6413 92.5312Z" fill="#4084B5"/>
</svg>
