<svg id="Layer_1" data-name="Layer 1" xmlns="http://www.w3.org/2000/svg" viewBox="0 0 74 100"><defs><style>.cls-1{fill:#035bab;}</style></defs><path class="cls-1" d="M.94,38.19A41.1,41.1,0,0,1,3.62,23.54a35.69,35.69,0,0,1,7.43-12.08A35.23,35.23,0,0,1,22.32,3.54,34.23,34.23,0,0,1,36.41.64a35.56,35.56,0,0,1,14.27,2.9,37.2,37.2,0,0,1,11.67,7.92,36.7,36.7,0,0,1,7.88,12.08,38.27,38.27,0,0,1,2.9,14.65,35.85,35.85,0,0,1-2.9,14.31A36.89,36.89,0,0,1,50.68,72.09,35.56,35.56,0,0,1,36.41,75a26.33,26.33,0,0,1-10.15-1.9,32.89,32.89,0,0,1-8.37-5L17.6,90.38a9.38,9.38,0,0,1-2.23,6.13A7.46,7.46,0,0,1,9.42,99a8.09,8.09,0,0,1-3.31-.67,8.71,8.71,0,0,1-2.68-1.82,8.46,8.46,0,0,1-1.82-2.75,8.78,8.78,0,0,1-.67-3.38ZM37,58a19,19,0,0,0,7.73-1.6,20.86,20.86,0,0,0,6.39-4.31,20.61,20.61,0,0,0,4.39-6.39,19.1,19.1,0,0,0,1.64-7.84,20.56,20.56,0,0,0-1.64-8,18.34,18.34,0,0,0-4.39-6.46,20.26,20.26,0,0,0-6.39-4A20.67,20.67,0,0,0,37,17.89a18.91,18.91,0,0,0-7.66,1.56,20.16,20.16,0,0,0-6.24,4.24,18.59,18.59,0,0,0-4.2,6.62,22,22,0,0,0-1.53,8A19.21,19.21,0,0,0,18.9,46,19.5,19.5,0,0,0,37,58Z"/></svg>