<svg width="186" height="99" viewBox="0 0 186 99" fill="none" xmlns="http://www.w3.org/2000/svg">
<path d="M79.3994 46.0868H98.8304C99.6221 46.0868 100.263 45.4462 100.263 44.6545C100.263 43.8628 99.6221 43.2222 98.8304 43.2222H79.3994C77.1055 43.2222 75.2396 41.3563 75.2396 39.0624V29.4926L84.383 23.1226L100.509 37.8008C100.783 38.0511 101.129 38.1742 101.473 38.1742C101.861 38.1742 102.249 38.0162 102.531 37.7056C103.064 37.121 103.022 36.2146 102.436 35.6831L85.4656 20.2356C84.9705 19.7838 84.2292 19.7376 83.6837 20.1195L75.2396 26.0025V13.8994C75.2396 11.6055 77.1055 9.73958 79.3994 9.73958H104.562C106.856 9.73958 108.722 11.6055 108.722 13.8994V33.3304C108.722 34.1221 109.363 34.7627 110.154 34.7627C110.946 34.7627 111.587 34.1221 111.587 33.3304V13.8994C111.587 10.0263 108.435 6.875 104.562 6.875H79.3994C75.5263 6.875 72.375 10.0263 72.375 13.8994V39.0624C72.375 42.9355 75.5263 46.0868 79.3994 46.0868Z" fill="#232323"/>
<path d="M99.4697 13.3652C96.3673 13.3652 93.844 15.8899 93.844 18.9923C93.844 22.0947 96.3673 24.618 99.4697 24.618C102.572 24.618 105.095 22.0947 105.095 18.9923C105.095 15.8899 102.572 13.3652 99.4697 13.3652ZM99.4697 21.7534C97.9478 21.7534 96.7086 20.5141 96.7086 18.9923C96.7086 17.4691 97.9478 16.2298 99.4697 16.2298C100.991 16.2298 102.231 17.4691 102.231 18.9923C102.231 20.5141 100.991 21.7534 99.4697 21.7534Z" fill="#232323"/>
<path d="M111.047 40.4267H108.791V38.1706C108.791 37.3789 108.15 36.7383 107.358 36.7383C106.567 36.7383 105.926 37.3789 105.926 38.1706V40.4267H103.67C102.878 40.4267 102.238 41.0673 102.238 41.859C102.238 42.6507 102.878 43.2913 103.67 43.2913H105.926V45.5474C105.926 46.3391 106.567 46.9797 107.358 46.9797C108.15 46.9797 108.791 46.3391 108.791 45.5474V43.2913H111.047C111.839 43.2913 112.479 42.6507 112.479 41.859C112.479 41.0673 111.839 40.4267 111.047 40.4267Z" fill="#232323"/>
<path d="M10.6055 93H6.89062L6.91406 90.2578H10.6055C11.5273 90.2578 12.3047 90.0508 12.9375 89.6367C13.5703 89.2148 14.0469 88.6016 14.3672 87.7969C14.6953 86.9922 14.8594 86.0195 14.8594 84.8789V84.0469C14.8594 83.1719 14.7656 82.4023 14.5781 81.7383C14.3984 81.0742 14.1289 80.5156 13.7695 80.0625C13.4102 79.6094 12.9688 79.2695 12.4453 79.043C11.9219 78.8086 11.3203 78.6914 10.6406 78.6914H6.82031V75.9375H10.6406C11.7812 75.9375 12.8242 76.1328 13.7695 76.5234C14.7227 76.9062 15.5469 77.457 16.2422 78.1758C16.9375 78.8945 17.4727 79.7539 17.8477 80.7539C18.2305 81.7461 18.4219 82.8516 18.4219 84.0703V84.8789C18.4219 86.0898 18.2305 87.1953 17.8477 88.1953C17.4727 89.1953 16.9375 90.0547 16.2422 90.7734C15.5547 91.4844 14.7305 92.0352 13.7695 92.4258C12.8164 92.8086 11.7617 93 10.6055 93ZM8.88281 75.9375V93H5.36719V75.9375H8.88281ZM24.1406 83.0859V93H20.7656V80.3203H23.9414L24.1406 83.0859ZM27.9609 80.2383L27.9023 83.3672C27.7383 83.3438 27.5391 83.3242 27.3047 83.3086C27.0781 83.2852 26.8711 83.2734 26.6836 83.2734C26.207 83.2734 25.793 83.3359 25.4414 83.4609C25.0977 83.5781 24.8086 83.7539 24.5742 83.9883C24.3477 84.2227 24.1758 84.5078 24.0586 84.8438C23.9492 85.1797 23.8867 85.5625 23.8711 85.9922L23.1914 85.7812C23.1914 84.9609 23.2734 84.207 23.4375 83.5195C23.6016 82.8242 23.8398 82.2188 24.1523 81.7031C24.4727 81.1875 24.8633 80.7891 25.3242 80.5078C25.7852 80.2266 26.3125 80.0859 26.9062 80.0859C27.0938 80.0859 27.2852 80.1016 27.4805 80.1328C27.6758 80.1562 27.8359 80.1914 27.9609 80.2383ZM28.6641 86.7891V86.543C28.6641 85.6133 28.7969 84.7578 29.0625 83.9766C29.3281 83.1875 29.7148 82.5039 30.2227 81.9258C30.7305 81.3477 31.3555 80.8984 32.0977 80.5781C32.8398 80.25 33.6914 80.0859 34.6523 80.0859C35.6133 80.0859 36.4688 80.25 37.2188 80.5781C37.9688 80.8984 38.5977 81.3477 39.1055 81.9258C39.6211 82.5039 40.0117 83.1875 40.2773 83.9766C40.543 84.7578 40.6758 85.6133 40.6758 86.543V86.7891C40.6758 87.7109 40.543 88.5664 40.2773 89.3555C40.0117 90.1367 39.6211 90.8203 39.1055 91.4062C38.5977 91.9844 37.9727 92.4336 37.2305 92.7539C36.4883 93.0742 35.6367 93.2344 34.6758 93.2344C33.7148 93.2344 32.8594 93.0742 32.1094 92.7539C31.3672 92.4336 30.7383 91.9844 30.2227 91.4062C29.7148 90.8203 29.3281 90.1367 29.0625 89.3555C28.7969 88.5664 28.6641 87.7109 28.6641 86.7891ZM32.0391 86.543V86.7891C32.0391 87.3203 32.0859 87.8164 32.1797 88.2773C32.2734 88.7383 32.4219 89.1445 32.625 89.4961C32.8359 89.8398 33.1094 90.1094 33.4453 90.3047C33.7812 90.5 34.1914 90.5977 34.6758 90.5977C35.1445 90.5977 35.5469 90.5 35.8828 90.3047C36.2188 90.1094 36.4883 89.8398 36.6914 89.4961C36.8945 89.1445 37.043 88.7383 37.1367 88.2773C37.2383 87.8164 37.2891 87.3203 37.2891 86.7891V86.543C37.2891 86.0273 37.2383 85.543 37.1367 85.0898C37.043 84.6289 36.8906 84.2227 36.6797 83.8711C36.4766 83.5117 36.207 83.2305 35.8711 83.0273C35.5352 82.8242 35.1289 82.7227 34.6523 82.7227C34.1758 82.7227 33.7695 82.8242 33.4336 83.0273C33.1055 83.2305 32.8359 83.5117 32.625 83.8711C32.4219 84.2227 32.2734 84.6289 32.1797 85.0898C32.0859 85.543 32.0391 86.0273 32.0391 86.543ZM46.125 82.7578V97.875H42.75V80.3203H45.8789L46.125 82.7578ZM54.1523 86.5195V86.7656C54.1523 87.6875 54.043 88.543 53.8242 89.332C53.6133 90.1211 53.3008 90.8086 52.8867 91.3945C52.4727 91.9727 51.957 92.4258 51.3398 92.7539C50.7305 93.0742 50.0273 93.2344 49.2305 93.2344C48.457 93.2344 47.7852 93.0781 47.2148 92.7656C46.6445 92.4531 46.1641 92.0156 45.7734 91.4531C45.3906 90.8828 45.082 90.2227 44.8477 89.4727C44.6133 88.7227 44.4336 87.918 44.3086 87.0586V86.4141C44.4336 85.4922 44.6133 84.6484 44.8477 83.8828C45.082 83.1094 45.3906 82.4414 45.7734 81.8789C46.1641 81.3086 46.6406 80.8672 47.2031 80.5547C47.7734 80.2422 48.4414 80.0859 49.207 80.0859C50.0117 80.0859 50.7188 80.2383 51.3281 80.543C51.9453 80.8477 52.4609 81.2852 52.875 81.8555C53.2969 82.4258 53.6133 83.1055 53.8242 83.8945C54.043 84.6836 54.1523 85.5586 54.1523 86.5195ZM50.7656 86.7656V86.5195C50.7656 85.9805 50.7188 85.4844 50.625 85.0312C50.5391 84.5703 50.3984 84.168 50.2031 83.8242C50.0156 83.4805 49.7656 83.2148 49.4531 83.0273C49.1484 82.832 48.7773 82.7344 48.3398 82.7344C47.8789 82.7344 47.4844 82.8086 47.1562 82.957C46.8359 83.1055 46.5742 83.3203 46.3711 83.6016C46.168 83.8828 46.0156 84.2188 45.9141 84.6094C45.8125 85 45.75 85.4414 45.7266 85.9336V87.5625C45.7656 88.1406 45.875 88.6602 46.0547 89.1211C46.2344 89.5742 46.5117 89.9336 46.8867 90.1992C47.2617 90.4648 47.7539 90.5977 48.3633 90.5977C48.8086 90.5977 49.1836 90.5 49.4883 90.3047C49.793 90.1016 50.0391 89.8242 50.2266 89.4727C50.4219 89.1211 50.5586 88.7148 50.6367 88.2539C50.7227 87.793 50.7656 87.2969 50.7656 86.7656ZM69.082 86.918H64.7344V84.1758H69.082C69.7539 84.1758 70.3008 84.0664 70.7227 83.8477C71.1445 83.6211 71.4531 83.3086 71.6484 82.9102C71.8438 82.5117 71.9414 82.0625 71.9414 81.5625C71.9414 81.0547 71.8438 80.582 71.6484 80.1445C71.4531 79.707 71.1445 79.3555 70.7227 79.0898C70.3008 78.8242 69.7539 78.6914 69.082 78.6914H65.9531V93H62.4375V75.9375H69.082C70.418 75.9375 71.5625 76.1797 72.5156 76.6641C73.4766 77.1406 74.2109 77.8008 74.7188 78.6445C75.2266 79.4883 75.4805 80.4531 75.4805 81.5391C75.4805 82.6406 75.2266 83.5938 74.7188 84.3984C74.2109 85.2031 73.4766 85.8242 72.5156 86.2617C71.5625 86.6992 70.418 86.918 69.082 86.918ZM80.9883 75V93H77.6133V75H80.9883ZM80.5078 86.2148H79.582C79.5898 85.332 79.707 84.5195 79.9336 83.7773C80.1602 83.0273 80.4844 82.3789 80.9062 81.832C81.3281 81.2773 81.832 80.8477 82.418 80.543C83.0117 80.2383 83.668 80.0859 84.3867 80.0859C85.0117 80.0859 85.5781 80.1758 86.0859 80.3555C86.6016 80.5273 87.043 80.8086 87.4102 81.1992C87.7852 81.582 88.0742 82.0859 88.2773 82.7109C88.4805 83.3359 88.582 84.0938 88.582 84.9844V93H85.1836V84.9609C85.1836 84.3984 85.1016 83.957 84.9375 83.6367C84.7812 83.3086 84.5508 83.0781 84.2461 82.9453C83.9492 82.8047 83.582 82.7344 83.1445 82.7344C82.6602 82.7344 82.2461 82.8242 81.9023 83.0039C81.5664 83.1836 81.2969 83.4336 81.0938 83.7539C80.8906 84.0664 80.7422 84.4336 80.6484 84.8555C80.5547 85.2773 80.5078 85.7305 80.5078 86.2148ZM90.6094 86.7891V86.543C90.6094 85.6133 90.7422 84.7578 91.0078 83.9766C91.2734 83.1875 91.6602 82.5039 92.168 81.9258C92.6758 81.3477 93.3008 80.8984 94.043 80.5781C94.7852 80.25 95.6367 80.0859 96.5977 80.0859C97.5586 80.0859 98.4141 80.25 99.1641 80.5781C99.9141 80.8984 100.543 81.3477 101.051 81.9258C101.566 82.5039 101.957 83.1875 102.223 83.9766C102.488 84.7578 102.621 85.6133 102.621 86.543V86.7891C102.621 87.7109 102.488 88.5664 102.223 89.3555C101.957 90.1367 101.566 90.8203 101.051 91.4062C100.543 91.9844 99.918 92.4336 99.1758 92.7539C98.4336 93.0742 97.582 93.2344 96.6211 93.2344C95.6602 93.2344 94.8047 93.0742 94.0547 92.7539C93.3125 92.4336 92.6836 91.9844 92.168 91.4062C91.6602 90.8203 91.2734 90.1367 91.0078 89.3555C90.7422 88.5664 90.6094 87.7109 90.6094 86.7891ZM93.9844 86.543V86.7891C93.9844 87.3203 94.0312 87.8164 94.125 88.2773C94.2188 88.7383 94.3672 89.1445 94.5703 89.4961C94.7812 89.8398 95.0547 90.1094 95.3906 90.3047C95.7266 90.5 96.1367 90.5977 96.6211 90.5977C97.0898 90.5977 97.4922 90.5 97.8281 90.3047C98.1641 90.1094 98.4336 89.8398 98.6367 89.4961C98.8398 89.1445 98.9883 88.7383 99.082 88.2773C99.1836 87.8164 99.2344 87.3203 99.2344 86.7891V86.543C99.2344 86.0273 99.1836 85.543 99.082 85.0898C98.9883 84.6289 98.8359 84.2227 98.625 83.8711C98.4219 83.5117 98.1523 83.2305 97.8164 83.0273C97.4805 82.8242 97.0742 82.7227 96.5977 82.7227C96.1211 82.7227 95.7148 82.8242 95.3789 83.0273C95.0508 83.2305 94.7812 83.5117 94.5703 83.8711C94.3672 84.2227 94.2188 84.6289 94.125 85.0898C94.0312 85.543 93.9844 86.0273 93.9844 86.543ZM110.906 80.3203V82.7109H103.523V80.3203H110.906ZM105.352 77.1914H108.727V89.1797C108.727 89.5469 108.773 89.8281 108.867 90.0234C108.969 90.2188 109.117 90.3555 109.312 90.4336C109.508 90.5039 109.754 90.5391 110.051 90.5391C110.262 90.5391 110.449 90.5312 110.613 90.5156C110.785 90.4922 110.93 90.4688 111.047 90.4453L111.059 92.9297C110.77 93.0234 110.457 93.0977 110.121 93.1523C109.785 93.207 109.414 93.2344 109.008 93.2344C108.266 93.2344 107.617 93.1133 107.062 92.8711C106.516 92.6211 106.094 92.2227 105.797 91.6758C105.5 91.1289 105.352 90.4102 105.352 89.5195V77.1914ZM111.984 86.7891V86.543C111.984 85.6133 112.117 84.7578 112.383 83.9766C112.648 83.1875 113.035 82.5039 113.543 81.9258C114.051 81.3477 114.676 80.8984 115.418 80.5781C116.16 80.25 117.012 80.0859 117.973 80.0859C118.934 80.0859 119.789 80.25 120.539 80.5781C121.289 80.8984 121.918 81.3477 122.426 81.9258C122.941 82.5039 123.332 83.1875 123.598 83.9766C123.863 84.7578 123.996 85.6133 123.996 86.543V86.7891C123.996 87.7109 123.863 88.5664 123.598 89.3555C123.332 90.1367 122.941 90.8203 122.426 91.4062C121.918 91.9844 121.293 92.4336 120.551 92.7539C119.809 93.0742 118.957 93.2344 117.996 93.2344C117.035 93.2344 116.18 93.0742 115.43 92.7539C114.688 92.4336 114.059 91.9844 113.543 91.4062C113.035 90.8203 112.648 90.1367 112.383 89.3555C112.117 88.5664 111.984 87.7109 111.984 86.7891ZM115.359 86.543V86.7891C115.359 87.3203 115.406 87.8164 115.5 88.2773C115.594 88.7383 115.742 89.1445 115.945 89.4961C116.156 89.8398 116.43 90.1094 116.766 90.3047C117.102 90.5 117.512 90.5977 117.996 90.5977C118.465 90.5977 118.867 90.5 119.203 90.3047C119.539 90.1094 119.809 89.8398 120.012 89.4961C120.215 89.1445 120.363 88.7383 120.457 88.2773C120.559 87.8164 120.609 87.3203 120.609 86.7891V86.543C120.609 86.0273 120.559 85.543 120.457 85.0898C120.363 84.6289 120.211 84.2227 120 83.8711C119.797 83.5117 119.527 83.2305 119.191 83.0273C118.855 82.8242 118.449 82.7227 117.973 82.7227C117.496 82.7227 117.09 82.8242 116.754 83.0273C116.426 83.2305 116.156 83.5117 115.945 83.8711C115.742 84.2227 115.594 84.6289 115.5 85.0898C115.406 85.543 115.359 86.0273 115.359 86.543ZM143.637 82.8867V85.6289H134.73V82.8867H143.637ZM135.773 75.9375V93H132.258V75.9375H135.773ZM146.145 75.9375V93H142.641V75.9375H146.145ZM154.828 93.2344C153.844 93.2344 152.961 93.0781 152.18 92.7656C151.398 92.4453 150.734 92.0039 150.188 91.4414C149.648 90.8789 149.234 90.2266 148.945 89.4844C148.656 88.7344 148.512 87.9375 148.512 87.0938V86.625C148.512 85.6641 148.648 84.7852 148.922 83.9883C149.195 83.1914 149.586 82.5 150.094 81.9141C150.609 81.3281 151.234 80.8789 151.969 80.5664C152.703 80.2461 153.531 80.0859 154.453 80.0859C155.352 80.0859 156.148 80.2344 156.844 80.5312C157.539 80.8281 158.121 81.25 158.59 81.7969C159.066 82.3438 159.426 83 159.668 83.7656C159.91 84.5234 160.031 85.3672 160.031 86.2969V87.7031H149.953V85.4531H156.715V85.1953C156.715 84.7266 156.629 84.3086 156.457 83.9414C156.293 83.5664 156.043 83.2695 155.707 83.0508C155.371 82.832 154.941 82.7227 154.418 82.7227C153.973 82.7227 153.59 82.8203 153.27 83.0156C152.949 83.2109 152.688 83.4844 152.484 83.8359C152.289 84.1875 152.141 84.6016 152.039 85.0781C151.945 85.5469 151.898 86.0625 151.898 86.625V87.0938C151.898 87.6016 151.969 88.0703 152.109 88.5C152.258 88.9297 152.465 89.3008 152.73 89.6133C153.004 89.9258 153.332 90.168 153.715 90.3398C154.105 90.5117 154.547 90.5977 155.039 90.5977C155.648 90.5977 156.215 90.4805 156.738 90.2461C157.27 90.0039 157.727 89.6406 158.109 89.1562L159.75 90.9375C159.484 91.3203 159.121 91.6875 158.66 92.0391C158.207 92.3906 157.66 92.6797 157.02 92.9062C156.379 93.125 155.648 93.2344 154.828 93.2344ZM165.328 83.0859V93H161.953V80.3203H165.129L165.328 83.0859ZM169.148 80.2383L169.09 83.3672C168.926 83.3438 168.727 83.3242 168.492 83.3086C168.266 83.2852 168.059 83.2734 167.871 83.2734C167.395 83.2734 166.98 83.3359 166.629 83.4609C166.285 83.5781 165.996 83.7539 165.762 83.9883C165.535 84.2227 165.363 84.5078 165.246 84.8438C165.137 85.1797 165.074 85.5625 165.059 85.9922L164.379 85.7812C164.379 84.9609 164.461 84.207 164.625 83.5195C164.789 82.8242 165.027 82.2188 165.34 81.7031C165.66 81.1875 166.051 80.7891 166.512 80.5078C166.973 80.2266 167.5 80.0859 168.094 80.0859C168.281 80.0859 168.473 80.1016 168.668 80.1328C168.863 80.1562 169.023 80.1914 169.148 80.2383ZM176.344 93.2344C175.359 93.2344 174.477 93.0781 173.695 92.7656C172.914 92.4453 172.25 92.0039 171.703 91.4414C171.164 90.8789 170.75 90.2266 170.461 89.4844C170.172 88.7344 170.027 87.9375 170.027 87.0938V86.625C170.027 85.6641 170.164 84.7852 170.438 83.9883C170.711 83.1914 171.102 82.5 171.609 81.9141C172.125 81.3281 172.75 80.8789 173.484 80.5664C174.219 80.2461 175.047 80.0859 175.969 80.0859C176.867 80.0859 177.664 80.2344 178.359 80.5312C179.055 80.8281 179.637 81.25 180.105 81.7969C180.582 82.3438 180.941 83 181.184 83.7656C181.426 84.5234 181.547 85.3672 181.547 86.2969V87.7031H171.469V85.4531H178.23V85.1953C178.23 84.7266 178.145 84.3086 177.973 83.9414C177.809 83.5664 177.559 83.2695 177.223 83.0508C176.887 82.832 176.457 82.7227 175.934 82.7227C175.488 82.7227 175.105 82.8203 174.785 83.0156C174.465 83.2109 174.203 83.4844 174 83.8359C173.805 84.1875 173.656 84.6016 173.555 85.0781C173.461 85.5469 173.414 86.0625 173.414 86.625V87.0938C173.414 87.6016 173.484 88.0703 173.625 88.5C173.773 88.9297 173.98 89.3008 174.246 89.6133C174.52 89.9258 174.848 90.168 175.23 90.3398C175.621 90.5117 176.062 90.5977 176.555 90.5977C177.164 90.5977 177.73 90.4805 178.254 90.2461C178.785 90.0039 179.242 89.6406 179.625 89.1562L181.266 90.9375C181 91.3203 180.637 91.6875 180.176 92.0391C179.723 92.3906 179.176 92.6797 178.535 92.9062C177.895 93.125 177.164 93.2344 176.344 93.2344Z" fill="#232323"/>
</svg>
